<svg id="svg" version="1.1" xmlns="http://www.w3.org/2000/svg" xmlns:xlink="http://www.w3.org/1999/xlink" width="400" height="400" viewBox="0, 0, 400,400"><g id="svgg"><path id="path0" d="M99.327 15.495 L 96.854 15.637 95.969 17.464 C 95.130 19.197,92.226 21.600,90.970 21.600 C 90.677 21.600,90.430 22.519,90.322 24.012 C 90.105 27.006,89.603 27.529,86.582 27.904 L 84.200 28.200 84.081 30.455 C 83.932 33.289,83.298 33.912,80.395 34.076 L 78.200 34.200 77.904 36.582 C 77.536 39.549,77.008 40.084,74.220 40.315 L 72.000 40.499 72.000 43.586 L 72.000 46.672 81.900 47.030 C 94.805 47.497,305.195 47.497,318.100 47.030 L 328.000 46.672 328.000 43.586 L 328.000 40.499 325.780 40.315 C 322.992 40.084,322.464 39.549,322.096 36.582 L 321.800 34.200 319.605 34.076 C 316.702 33.912,316.068 33.289,315.919 30.455 L 315.800 28.200 313.418 27.904 C 310.404 27.530,309.895 27.004,309.681 24.044 C 309.534 22.023,309.379 21.631,308.654 21.445 C 307.308 21.101,304.850 18.866,304.012 17.223 L 303.247 15.723 299.562 15.462 C 295.858 15.199,103.952 15.231,99.327 15.495 M231.457 23.288 C 233.214 24.250,233.600 25.740,233.599 31.560 C 233.596 40.707,236.428 39.996,200.000 39.996 C 168.577 39.996,168.469 39.989,167.181 37.875 C 165.836 35.670,166.255 23.665,167.680 23.594 C 167.746 23.591,168.520 23.326,169.400 23.006 C 172.019 22.054,229.681 22.316,231.457 23.288 M121.385 121.700 C 121.280 121.975,121.241 148.930,121.297 181.600 L 121.400 241.000 156.200 241.000 L 191.000 241.000 191.121 188.200 C 191.187 159.160,191.126 133.748,190.986 131.729 L 190.730 128.058 189.151 127.792 C 186.870 127.406,185.370 125.975,184.813 123.655 L 184.348 121.715 181.074 121.460 C 174.468 120.945,121.591 121.158,121.385 121.700 M218.932 121.854 C 217.950 122.255,215.749 124.654,215.251 125.866 C 214.933 126.639,214.246 127.332,213.483 127.649 C 212.796 127.933,211.552 128.848,210.717 129.683 L 209.200 131.200 209.200 186.252 L 209.200 241.305 210.700 241.057 C 211.525 240.920,227.095 240.807,245.300 240.804 L 278.400 240.800 278.400 181.200 L 278.400 121.600 248.900 121.632 C 232.675 121.649,219.189 121.749,218.932 121.854 M143.873 135.734 C 147.350 137.532,147.247 150.386,143.744 151.849 C 141.886 152.626,133.256 152.601,131.373 151.814 C 128.200 150.489,127.534 138.542,130.495 136.086 C 132.134 134.727,141.451 134.482,143.873 135.734 M181.275 135.674 C 184.020 136.910,184.790 148.594,182.292 151.092 L 181.183 152.200 169.692 152.328 C 153.464 152.509,153.800 152.690,153.800 143.800 C 153.800 134.768,153.667 134.843,169.600 134.945 C 178.146 135.000,180.039 135.118,181.275 135.674 M231.935 135.237 C 233.756 135.872,234.089 137.449,233.932 144.690 C 233.751 153.022,234.228 152.600,225.000 152.600 C 215.772 152.600,216.249 153.022,216.068 144.690 C 215.916 137.655,216.266 135.862,217.907 135.263 C 219.407 134.714,230.378 134.695,231.935 135.237 M270.489 135.911 C 271.364 136.786,271.400 137.084,271.400 143.528 C 271.400 153.497,272.563 152.800,255.937 152.800 C 240.048 152.800,240.994 153.395,241.010 143.400 C 241.020 137.034,241.292 135.868,242.926 135.195 C 245.103 134.297,269.510 134.931,270.489 135.911 M269.895 160.312 C 271.180 161.046,271.400 162.287,271.400 168.800 C 271.400 178.767,274.323 177.800,244.200 177.800 C 213.032 177.800,215.836 178.782,216.066 167.945 C 216.216 160.859,216.343 160.522,219.073 159.979 C 221.863 159.423,268.879 159.731,269.895 160.312 M180.521 160.427 C 183.090 161.140,183.597 162.471,183.599 168.513 C 183.601 178.138,185.894 177.400,156.000 177.400 C 126.326 177.400,128.563 178.192,128.861 167.795 C 129.018 162.327,129.499 161.083,131.702 160.447 C 133.565 159.909,178.589 159.890,180.521 160.427 M181.275 185.669 C 184.020 186.914,184.790 198.595,182.291 201.092 L 181.182 202.200 157.007 202.312 C 126.675 202.452,128.800 203.094,128.800 193.800 C 128.800 187.335,129.478 185.902,132.857 185.222 C 136.374 184.515,179.611 184.914,181.275 185.669 M270.489 185.911 C 271.728 187.150,271.903 199.465,270.708 201.291 C 269.698 202.833,269.252 202.856,242.311 202.721 L 218.022 202.600 217.111 201.690 C 216.046 200.626,215.510 190.027,216.375 187.131 C 217.067 184.814,216.648 184.847,244.289 184.927 L 269.578 185.000 270.489 185.911 M269.895 210.312 C 271.180 211.046,271.400 212.287,271.400 218.800 C 271.400 228.767,274.323 227.800,244.200 227.800 C 213.032 227.800,215.836 228.782,216.066 217.945 C 216.216 210.859,216.343 210.522,219.073 209.979 C 221.863 209.423,268.879 209.731,269.895 210.312 M180.521 210.427 C 183.090 211.140,183.597 212.471,183.599 218.513 C 183.601 228.138,185.894 227.400,156.000 227.400 C 126.326 227.400,128.563 228.192,128.861 217.795 C 129.018 212.327,129.499 211.083,131.702 210.447 C 133.565 209.909,178.589 209.890,180.521 210.427 M88.400 352.814 C 86.310 352.977,81.765 353.131,78.300 353.155 L 72.000 353.200 72.000 356.350 L 72.000 359.501 74.220 359.685 C 77.008 359.916,77.536 360.451,77.904 363.418 L 78.200 365.800 80.455 365.919 C 83.289 366.068,83.912 366.702,84.076 369.605 L 84.200 371.800 86.763 372.083 C 89.945 372.434,90.125 372.617,90.322 375.713 L 90.482 378.224 92.255 378.958 C 94.049 379.700,95.619 381.345,96.339 383.239 C 96.712 384.221,96.926 384.289,100.428 384.538 C 105.247 384.880,294.743 384.880,299.562 384.538 L 303.247 384.277 304.012 382.777 C 304.850 381.134,307.308 378.899,308.654 378.555 C 309.379 378.369,309.534 377.977,309.681 375.956 C 309.895 372.996,310.404 372.470,313.418 372.096 L 315.800 371.800 315.919 369.545 C 316.068 366.711,316.702 366.088,319.605 365.924 L 321.800 365.800 322.096 363.418 C 322.464 360.451,322.992 359.916,325.780 359.685 L 328.000 359.501 328.000 356.368 L 328.000 353.236 320.900 353.010 C 309.964 352.661,92.707 352.479,88.400 352.814 M230.521 360.427 C 233.090 361.140,233.597 362.471,233.599 368.513 C 233.600 374.517,233.170 375.979,231.149 376.831 C 229.140 377.678,170.860 377.678,168.851 376.831 C 164.964 375.192,165.324 361.594,169.285 360.451 C 171.176 359.906,228.563 359.883,230.521 360.427 " stroke="none" fill="#ededed" fill-rule="evenodd"></path><path id="path1" d="M70.228 63.747 L 68.800 65.094 68.800 200.000 L 68.800 334.906 70.228 336.253 L 71.657 337.600 81.028 337.600 C 87.009 337.600,90.400 337.455,90.400 337.200 C 90.400 336.934,127.200 336.800,200.000 336.800 C 272.800 336.800,309.600 336.934,309.600 337.200 C 309.600 337.455,312.991 337.600,318.972 337.600 L 328.343 337.600 329.772 336.253 L 331.200 334.906 331.200 200.000 L 331.200 65.094 329.772 63.747 L 328.343 62.400 318.972 62.400 C 312.991 62.400,309.600 62.545,309.600 62.800 C 309.600 63.066,272.800 63.200,200.000 63.200 C 127.200 63.200,90.400 63.066,90.400 62.800 C 90.400 62.545,87.009 62.400,81.028 62.400 L 71.657 62.400 70.228 63.747 M310.923 64.625 L 312.432 65.650 312.316 68.911 C 312.135 73.993,312.119 74.000,299.741 74.000 C 292.886 74.000,290.000 74.131,290.000 74.443 C 290.000 74.686,289.736 74.784,289.413 74.660 C 289.090 74.536,288.728 74.593,288.608 74.787 C 288.488 74.981,288.707 75.222,289.095 75.323 C 289.660 75.471,289.630 75.516,288.947 75.554 C 288.440 75.581,288.004 75.941,287.874 76.440 C 287.753 76.902,287.471 77.167,287.247 77.029 C 286.669 76.672,286.327 78.944,286.499 82.000 L 286.646 84.600 286.723 81.440 L 286.800 78.280 288.824 76.340 L 290.847 74.400 300.247 74.400 C 305.417 74.400,309.558 74.545,309.448 74.722 C 309.339 74.899,310.718 75.258,312.513 75.520 C 318.299 76.363,318.762 77.676,318.785 93.314 C 318.804 106.001,318.394 106.800,312.158 106.235 C 310.310 106.067,309.172 106.122,309.008 106.387 C 308.831 106.673,308.507 106.671,307.965 106.381 C 307.532 106.149,307.276 105.801,307.395 105.608 C 307.515 105.414,307.427 105.140,307.200 105.000 C 306.973 104.860,306.908 104.549,307.055 104.311 C 307.214 104.053,307.138 103.991,306.867 104.158 C 305.772 104.835,306.720 106.093,309.429 107.560 L 312.200 109.059 312.200 112.414 L 312.200 115.768 310.804 116.709 C 309.454 117.619,309.183 117.646,302.707 117.525 C 297.877 117.435,295.958 117.530,295.829 117.866 C 295.699 118.208,297.449 118.345,302.409 118.381 C 306.126 118.408,309.669 118.590,310.284 118.786 C 310.898 118.982,312.413 119.256,313.652 119.394 C 316.167 119.675,317.286 120.540,318.106 122.836 C 318.799 124.775,319.050 269.849,318.369 274.747 C 317.384 281.837,321.042 281.379,265.300 281.391 C 226.012 281.399,220.801 281.470,220.806 282.000 C 220.812 282.533,220.855 282.533,221.200 282.000 C 221.458 281.600,221.590 281.567,221.594 281.900 C 221.599 282.297,230.658 282.400,265.541 282.400 L 309.482 282.400 310.841 283.316 L 312.200 284.232 312.303 309.299 L 312.406 334.367 310.910 335.384 L 309.414 336.400 200.000 336.400 L 90.586 336.400 89.093 335.386 L 87.600 334.371 87.600 331.191 L 87.600 328.010 89.192 327.005 C 90.068 326.452,90.957 326.000,91.168 326.000 C 91.380 326.000,91.681 325.792,91.838 325.538 C 92.015 325.252,91.948 325.185,91.662 325.362 C 91.403 325.522,91.197 325.417,91.194 325.124 C 91.189 324.743,91.082 324.764,90.800 325.200 C 90.487 325.684,90.411 325.692,90.406 325.241 C 90.401 324.792,89.830 324.731,87.490 324.929 C 82.636 325.339,81.232 323.949,81.213 318.713 C 81.200 315.236,81.204 315.223,82.642 313.785 L 84.083 312.344 87.405 312.472 C 89.545 312.554,90.641 312.458,90.486 312.200 C 90.354 311.980,90.559 312.053,90.940 312.363 C 91.510 312.825,91.720 312.833,92.117 312.404 C 92.455 312.039,92.460 311.961,92.134 312.144 C 91.878 312.287,91.608 312.262,91.534 312.088 C 91.460 311.913,90.542 311.273,89.494 310.665 L 87.589 309.560 87.694 296.896 L 87.800 284.232 89.159 283.316 L 90.518 282.400 134.459 282.400 C 163.230 282.400,178.400 282.263,178.400 282.003 C 178.400 281.745,163.098 281.567,134.300 281.492 C 81.742 281.354,83.374 281.487,81.906 277.230 C 81.219 275.238,80.944 129.795,81.618 124.941 C 82.218 120.623,83.060 119.746,87.095 119.240 C 88.662 119.043,90.108 118.781,90.308 118.657 C 90.509 118.533,93.750 118.409,97.511 118.381 C 102.532 118.345,104.301 118.208,104.171 117.866 C 104.042 117.530,102.123 117.435,97.293 117.525 C 90.817 117.646,90.546 117.619,89.196 116.709 L 87.800 115.768 87.697 90.701 L 87.594 65.633 89.090 64.616 L 90.586 63.600 200.000 63.600 L 309.414 63.600 310.923 64.625 M264.832 74.324 C 264.814 74.612,264.649 74.754,264.465 74.640 C 264.031 74.372,262.400 75.513,262.400 76.085 C 262.400 76.326,262.760 76.198,263.200 75.800 C 264.151 74.940,264.276 75.432,263.362 76.442 C 263.012 76.829,262.472 77.049,262.162 76.930 C 261.853 76.812,261.600 76.924,261.600 77.181 C 261.600 77.437,261.780 77.536,262.000 77.400 C 262.255 77.242,262.426 78.646,262.472 81.276 L 262.545 85.400 262.772 81.340 C 262.995 77.361,263.370 76.295,264.949 75.146 C 265.141 75.007,265.200 74.647,265.080 74.346 C 264.911 73.920,264.856 73.915,264.832 74.324 M267.100 74.293 C 268.035 74.377,269.565 74.377,270.500 74.293 C 271.435 74.209,270.670 74.140,268.800 74.140 C 266.930 74.140,266.165 74.209,267.100 74.293 M272.187 74.821 C 272.089 74.980,272.277 75.332,272.604 75.604 C 272.932 75.876,273.200 75.964,273.200 75.800 C 273.200 75.636,273.468 75.724,273.796 75.996 C 274.123 76.268,274.305 76.630,274.200 76.800 C 274.095 76.970,274.277 77.332,274.604 77.604 C 274.932 77.876,275.214 78.031,275.231 77.949 C 275.486 76.707,275.454 76.438,275.063 76.512 C 274.808 76.561,274.655 76.275,274.723 75.877 C 274.809 75.369,274.631 75.191,274.123 75.277 C 273.725 75.345,273.435 75.205,273.478 74.967 C 273.564 74.487,272.469 74.364,272.187 74.821 M261.200 81.200 C 261.200 83.067,261.367 84.400,261.600 84.400 C 261.833 84.400,262.000 83.067,262.000 81.200 C 262.000 79.333,261.833 78.000,261.600 78.000 C 261.367 78.000,261.200 79.333,261.200 81.200 M275.740 81.200 C 275.740 83.070,275.809 83.835,275.893 82.900 C 275.977 81.965,275.977 80.435,275.893 79.500 C 275.809 78.565,275.740 79.330,275.740 81.200 M274.787 85.100 C 274.741 86.213,272.423 87.010,268.600 87.228 L 264.600 87.455 268.724 87.528 C 271.354 87.574,272.758 87.745,272.600 88.000 C 272.464 88.220,272.563 88.400,272.819 88.400 C 273.076 88.400,273.188 88.147,273.070 87.838 C 272.951 87.528,273.171 86.988,273.558 86.638 C 274.568 85.724,275.060 85.849,274.200 86.800 C 273.802 87.240,273.662 87.600,273.889 87.600 C 274.400 87.600,275.090 86.798,275.267 85.999 C 275.340 85.669,275.580 85.268,275.800 85.106 C 276.026 84.940,275.895 84.810,275.500 84.806 C 275.115 84.803,274.794 84.935,274.787 85.100 M287.492 85.291 C 287.715 85.571,287.846 86.114,287.784 86.498 C 287.633 87.431,288.232 87.747,289.097 87.191 C 289.762 86.764,289.762 86.751,289.100 86.957 C 288.569 87.122,288.400 86.946,288.400 86.230 C 288.400 85.711,288.105 85.172,287.743 85.034 C 287.251 84.845,287.188 84.909,287.492 85.291 M262.400 86.413 C 262.400 86.673,262.661 86.786,262.980 86.663 C 263.367 86.515,263.485 86.633,263.337 87.020 C 263.214 87.339,263.327 87.600,263.587 87.600 C 263.846 87.600,263.998 87.287,263.925 86.905 C 263.774 86.122,262.400 85.680,262.400 86.413 M289.736 87.506 C 289.481 87.668,291.641 87.751,294.536 87.692 C 302.983 87.519,303.910 87.349,296.800 87.278 C 293.170 87.242,289.991 87.344,289.736 87.506 M265.600 88.400 C 265.600 88.633,266.933 88.800,268.800 88.800 C 270.667 88.800,272.000 88.633,272.000 88.400 C 272.000 88.167,270.667 88.000,268.800 88.000 C 266.933 88.000,265.600 88.167,265.600 88.400 M290.400 88.400 C 290.400 88.650,292.800 88.800,296.800 88.800 C 300.800 88.800,303.200 88.650,303.200 88.400 C 303.200 88.150,300.800 88.000,296.800 88.000 C 292.800 88.000,290.400 88.150,290.400 88.400 M305.467 90.667 C 304.976 91.157,305.159 103.928,305.662 104.238 C 305.935 104.407,306.016 104.349,305.859 104.096 C 305.714 103.861,305.821 103.577,306.098 103.466 C 306.497 103.305,306.497 103.257,306.100 103.232 C 305.723 103.208,305.600 101.683,305.600 97.033 C 305.600 92.474,305.730 90.814,306.100 90.665 C 306.379 90.552,306.409 90.449,306.167 90.432 C 305.928 90.414,305.613 90.520,305.467 90.667 M113.103 105.431 C 112.596 105.938,113.226 106.400,114.424 106.400 C 115.071 106.400,115.600 106.220,115.600 106.000 C 115.600 105.736,127.333 105.600,150.000 105.600 C 172.667 105.600,184.400 105.736,184.400 106.000 C 184.400 106.220,184.664 106.400,184.987 106.400 C 185.343 106.400,185.485 106.165,185.346 105.804 C 185.146 105.283,180.700 105.209,149.738 105.209 C 126.511 105.209,114.442 105.345,114.603 105.604 C 114.737 105.822,114.582 106.000,114.257 106.000 C 113.932 106.000,113.603 105.809,113.525 105.575 C 113.447 105.341,113.257 105.276,113.103 105.431 M186.909 105.442 C 187.065 105.598,186.993 105.968,186.748 106.263 C 186.408 106.672,186.446 106.800,186.908 106.800 C 187.778 106.800,188.074 105.714,187.287 105.412 C 186.923 105.272,186.752 105.286,186.909 105.442 M188.637 105.540 C 188.492 105.774,188.910 106.243,189.564 106.581 C 190.313 106.969,190.846 107.049,191.001 106.799 C 191.136 106.579,191.439 106.400,191.673 106.400 C 191.941 106.400,191.914 106.622,191.600 107.000 C 191.256 107.415,191.241 107.600,191.551 107.600 C 191.798 107.600,192.000 107.409,192.000 107.176 C 192.000 106.943,192.180 106.864,192.400 107.000 C 192.620 107.136,192.800 107.078,192.800 106.872 C 192.800 106.325,190.530 105.473,189.979 105.813 C 189.722 105.972,189.373 105.880,189.205 105.609 C 188.998 105.273,188.816 105.251,188.637 105.540 M212.600 105.600 C 212.297 106.091,212.694 106.800,213.273 106.800 C 213.563 106.800,213.557 106.630,213.252 106.263 C 213.007 105.968,212.925 105.608,213.070 105.463 C 213.215 105.318,213.224 105.200,213.090 105.200 C 212.957 105.200,212.736 105.380,212.600 105.600 M214.654 105.802 C 214.515 106.165,214.656 106.400,215.013 106.400 C 215.336 106.400,215.600 106.220,215.600 106.000 C 215.600 105.736,227.333 105.600,250.000 105.600 C 268.920 105.600,284.400 105.746,284.400 105.924 C 284.400 106.371,289.097 107.111,289.673 106.755 C 289.944 106.587,289.650 106.411,288.970 106.333 C 288.326 106.260,287.832 106.014,287.871 105.786 C 287.911 105.558,287.609 105.371,287.201 105.371 C 286.793 105.371,286.546 105.513,286.653 105.686 C 286.760 105.859,286.567 106.000,286.224 106.000 C 285.881 106.000,285.600 105.824,285.600 105.609 C 285.600 104.887,214.932 105.080,214.654 105.802 M109.406 106.357 C 109.560 106.760,109.478 106.803,109.109 106.513 C 108.368 105.930,105.874 108.512,106.534 109.178 C 106.889 109.536,106.857 109.593,106.400 109.420 C 105.951 109.250,105.780 109.522,105.719 110.497 C 105.639 111.785,105.644 111.789,106.165 110.839 C 106.551 110.137,106.753 110.030,106.915 110.439 C 107.056 110.795,107.148 110.691,107.168 110.155 C 107.186 109.690,107.675 108.835,108.255 108.255 C 108.835 107.675,109.690 107.186,110.155 107.168 C 110.691 107.148,110.795 107.056,110.439 106.915 C 110.030 106.753,110.137 106.551,110.839 106.165 C 111.789 105.644,111.785 105.639,110.497 105.719 C 109.567 105.777,109.254 105.960,109.406 106.357 M210.580 106.032 C 210.432 106.272,209.874 106.355,209.326 106.217 C 208.486 106.006,208.419 106.054,208.870 106.541 C 209.369 107.079,211.600 106.465,211.600 105.790 C 211.600 105.424,210.845 105.604,210.580 106.032 M292.140 106.987 C 292.264 107.310,292.193 107.681,291.983 107.811 C 291.772 107.941,291.600 107.827,291.600 107.557 C 291.600 107.287,291.484 107.182,291.343 107.324 C 291.007 107.660,291.966 108.809,292.549 108.768 C 292.830 108.749,292.811 108.660,292.498 108.534 C 291.732 108.226,292.327 107.599,293.113 107.885 C 293.716 108.105,293.707 108.030,293.038 107.268 C 292.152 106.259,291.821 106.155,292.140 106.987 M192.851 108.277 C 193.320 108.855,193.317 108.903,192.832 108.611 C 192.485 108.402,192.564 108.680,193.032 109.322 C 193.866 110.465,194.218 110.618,194.600 110.000 C 194.736 109.780,194.556 109.600,194.200 109.600 C 193.844 109.600,193.666 109.417,193.804 109.193 C 193.942 108.970,194.241 108.902,194.468 109.042 C 194.719 109.197,194.703 108.965,194.426 108.448 C 194.176 107.982,193.596 107.600,193.137 107.600 C 192.403 107.600,192.368 107.682,192.851 108.277 M206.060 108.780 C 206.232 109.296,206.781 109.388,206.830 108.910 C 206.847 108.751,206.644 108.548,206.380 108.460 C 206.116 108.372,205.972 108.516,206.060 108.780 M205.383 109.972 C 205.509 110.177,205.430 110.458,205.207 110.596 C 204.983 110.734,204.800 110.646,204.800 110.400 C 204.800 110.154,204.597 110.078,204.349 110.232 C 204.044 110.420,204.125 110.638,204.596 110.902 C 205.096 111.181,205.394 111.137,205.642 110.747 C 206.110 110.008,206.086 109.600,205.576 109.600 C 205.343 109.600,205.256 109.768,205.383 109.972 M194.900 110.287 C 194.213 110.534,194.269 111.200,194.976 111.200 C 195.639 111.200,196.163 110.540,195.707 110.282 C 195.538 110.186,195.175 110.189,194.900 110.287 M293.174 110.400 C 292.721 111.735,293.798 116.281,294.335 115.300 C 294.647 114.730,294.676 114.400,294.414 114.400 C 294.186 114.400,294.000 114.119,294.000 113.776 C 294.000 113.433,294.141 113.240,294.314 113.347 C 294.487 113.454,294.629 113.207,294.629 112.799 C 294.629 112.391,294.452 112.089,294.237 112.129 C 294.021 112.168,293.740 111.660,293.611 111.000 C 293.468 110.263,293.299 110.032,293.174 110.400 M195.338 111.700 C 195.117 112.058,194.979 112.048,200.000 112.048 C 205.021 112.048,204.984 112.050,204.684 111.751 C 204.323 111.390,195.559 111.343,195.338 111.700 M196.800 112.800 C 196.800 113.033,198.133 113.200,200.000 113.200 C 201.867 113.200,203.200 113.033,203.200 112.800 C 203.200 112.567,201.867 112.400,200.000 112.400 C 198.133 112.400,196.800 112.567,196.800 112.800 M105.404 113.193 C 105.266 113.417,105.343 113.600,105.576 113.600 C 105.809 113.600,106.000 113.881,106.000 114.224 C 106.000 114.567,105.820 114.736,105.600 114.600 C 104.967 114.209,105.135 115.048,105.800 115.600 C 106.314 116.027,106.400 115.894,106.400 114.673 C 106.400 113.234,105.868 112.443,105.404 113.193 M178.933 281.874 C 178.933 282.236,179.079 282.267,179.428 281.977 C 179.774 281.689,179.984 281.721,180.130 282.083 C 180.265 282.422,180.348 282.367,180.368 281.925 C 180.388 281.507,180.121 281.271,179.667 281.305 C 179.263 281.335,178.933 281.591,178.933 281.874 M180.872 281.880 C 180.950 282.282,181.410 282.582,182.002 282.614 C 182.551 282.645,183.720 282.785,184.600 282.925 C 185.703 283.102,185.951 283.068,185.400 282.819 L 184.600 282.456 185.400 282.412 C 185.991 282.380,185.848 282.216,184.854 281.784 C 183.146 281.043,181.845 281.019,182.119 281.733 C 182.232 282.027,182.088 282.267,181.800 282.267 C 181.512 282.267,181.368 282.027,181.481 281.733 C 181.593 281.440,181.473 281.200,181.213 281.200 C 180.954 281.200,180.800 281.506,180.872 281.880 M216.983 281.572 C 217.109 281.777,217.030 282.058,216.807 282.196 C 216.583 282.334,216.397 282.212,216.394 281.924 C 216.389 281.543,216.282 281.564,216.000 282.000 C 215.755 282.379,215.610 282.421,215.606 282.113 C 215.603 281.838,215.330 281.729,214.983 281.862 C 214.643 281.992,214.450 282.183,214.553 282.286 C 214.892 282.625,218.416 282.698,218.619 282.370 C 218.728 282.194,219.143 282.112,219.542 282.189 C 219.940 282.266,220.267 282.105,220.267 281.831 C 220.267 281.214,219.106 281.162,218.706 281.761 C 218.513 282.049,218.410 282.002,218.406 281.624 C 218.402 281.208,218.232 281.264,217.799 281.824 C 217.298 282.471,217.239 282.484,217.442 281.900 C 217.583 281.494,217.490 281.200,217.219 281.200 C 216.963 281.200,216.856 281.368,216.983 281.572 M186.287 283.317 C 186.058 283.915,186.769 284.952,187.514 285.104 C 187.895 285.182,187.867 284.903,187.402 284.004 C 186.706 282.657,186.572 282.575,186.287 283.317 M213.600 283.200 C 213.600 283.420,213.309 283.600,212.953 283.600 C 212.503 283.600,212.370 283.844,212.516 284.401 C 212.631 284.841,212.562 285.100,212.363 284.977 C 212.163 284.854,212.000 284.933,212.000 285.153 C 212.000 286.004,212.784 285.979,213.260 285.111 C 213.806 284.118,214.112 282.800,213.797 282.800 C 213.689 282.800,213.600 282.980,213.600 283.200 M187.776 285.830 C 187.349 286.176,187.225 286.345,187.500 286.206 C 187.792 286.058,188.000 286.207,188.000 286.564 C 188.000 286.947,188.227 287.088,188.610 286.941 C 189.041 286.775,189.101 286.562,188.814 286.216 C 188.590 285.947,188.525 285.608,188.670 285.463 C 189.188 284.946,188.538 285.212,187.776 285.830 M210.662 285.931 C 210.298 286.334,210.000 286.884,210.000 287.155 C 210.000 287.426,209.797 287.522,209.548 287.368 C 209.279 287.201,209.168 287.303,209.273 287.619 C 209.555 288.464,210.400 288.541,210.400 287.722 C 210.400 287.313,210.680 286.578,211.023 286.089 C 211.776 285.013,211.573 284.924,210.662 285.931 M207.752 288.181 C 207.629 288.500,207.646 288.950,207.788 289.181 C 207.931 289.411,207.761 289.600,207.411 289.600 C 207.061 289.600,206.672 289.869,206.546 290.198 C 206.419 290.526,206.156 290.696,205.960 290.575 C 205.327 290.184,204.586 292.347,205.159 292.911 C 205.433 293.180,205.623 293.220,205.581 293.000 C 205.339 291.725,205.647 290.854,206.300 290.971 C 206.695 291.041,207.406 290.594,207.930 289.948 C 208.442 289.316,208.667 288.800,208.430 288.800 C 208.194 288.800,208.000 288.609,208.000 288.376 C 208.000 288.143,208.208 288.081,208.462 288.238 C 208.748 288.415,208.815 288.348,208.638 288.062 C 208.259 287.448,208.021 287.480,207.752 288.181 M192.629 289.641 C 192.686 290.169,192.748 290.725,192.767 290.877 C 192.785 291.029,193.160 291.085,193.600 291.000 C 194.359 290.854,194.678 291.633,194.419 293.000 C 194.377 293.220,194.567 293.180,194.841 292.911 C 195.438 292.324,194.660 290.192,193.998 290.601 C 193.779 290.736,193.600 290.691,193.600 290.500 C 193.600 290.309,193.358 289.822,193.063 289.418 C 192.561 288.731,192.532 288.746,192.629 289.641 M195.654 292.935 C 195.251 293.421,195.882 293.503,200.000 293.503 C 204.118 293.503,204.749 293.421,204.346 292.935 C 204.018 292.540,203.746 292.494,203.457 292.783 C 203.228 293.012,201.672 293.200,200.000 293.200 C 198.328 293.200,196.772 293.012,196.543 292.783 C 196.254 292.494,195.982 292.540,195.654 292.935 M198.300 294.293 C 199.235 294.377,200.765 294.377,201.700 294.293 C 202.635 294.209,201.870 294.140,200.000 294.140 C 198.130 294.140,197.365 294.209,198.300 294.293 M108.883 311.470 C 108.487 311.630,108.475 311.808,108.832 312.239 C 109.228 312.715,115.924 312.785,153.149 312.703 L 197.000 312.605 153.000 312.400 L 109.000 312.195 152.876 312.097 C 181.590 312.034,196.838 311.862,197.000 311.600 C 197.256 311.187,109.911 311.058,108.883 311.470 M198.176 312.838 C 198.027 313.079,198.172 313.543,198.498 313.869 C 199.021 314.393,199.119 314.388,199.333 313.831 C 199.466 313.484,199.390 313.200,199.164 313.200 C 198.938 313.200,198.864 313.020,199.000 312.800 C 199.136 312.580,199.067 312.400,198.847 312.400 C 198.627 312.400,198.325 312.597,198.176 312.838 M93.741 313.745 C 93.949 314.324,93.862 314.433,93.348 314.235 C 92.795 314.023,92.769 314.081,93.192 314.591 C 93.470 314.926,93.846 315.200,94.026 315.200 C 94.397 315.200,94.173 313.623,93.749 313.246 C 93.597 313.111,93.593 313.335,93.741 313.745 M105.969 313.500 C 105.953 313.665,105.878 314.115,105.805 314.500 C 105.640 315.362,106.131 315.407,106.808 314.591 C 107.231 314.081,107.205 314.023,106.652 314.235 C 106.161 314.424,106.055 314.323,106.238 313.845 C 106.374 313.490,106.376 313.200,106.243 313.200 C 106.109 313.200,105.986 313.335,105.969 313.500 M200.443 318.693 C 200.473 320.944,200.656 322.689,200.849 322.570 C 201.334 322.270,201.281 315.939,200.788 315.200 C 200.509 314.783,200.404 315.846,200.443 318.693 M94.540 318.800 C 94.540 320.670,94.609 321.435,94.693 320.500 C 94.777 319.565,94.777 318.035,94.693 317.100 C 94.609 316.165,94.540 316.930,94.540 318.800 M105.340 318.800 C 105.340 320.670,105.409 321.435,105.493 320.500 C 105.577 319.565,105.577 318.035,105.493 317.100 C 105.409 316.165,105.340 316.930,105.340 318.800 M92.962 322.862 C 92.785 323.148,92.852 323.215,93.138 323.038 C 93.760 322.654,93.731 323.690,93.100 324.409 C 92.825 324.723,92.993 324.652,93.473 324.252 C 93.953 323.852,94.249 323.272,94.130 322.962 C 93.868 322.280,93.349 322.236,92.962 322.862 M105.861 322.986 C 105.722 323.348,106.199 324.036,107.109 324.786 L 108.582 326.000 153.291 326.000 C 182.830 326.000,198.000 325.864,198.000 325.600 C 198.000 325.380,198.202 325.245,198.450 325.300 C 198.697 325.355,198.983 325.175,199.083 324.900 C 199.206 324.565,199.036 324.488,198.568 324.668 C 198.094 324.849,197.961 324.786,198.155 324.473 C 198.344 324.166,198.223 324.093,197.798 324.256 C 197.444 324.392,197.250 324.752,197.366 325.057 C 197.547 325.526,190.805 325.594,152.890 325.505 C 109.174 325.402,108.201 325.383,108.200 324.634 C 108.200 324.213,107.971 323.822,107.690 323.764 C 107.410 323.707,107.366 323.752,107.592 323.864 C 107.819 323.976,107.898 324.242,107.767 324.454 C 107.620 324.691,107.312 324.659,106.964 324.370 C 106.286 323.807,106.195 322.626,106.862 323.038 C 107.148 323.215,107.215 323.148,107.038 322.862 C 106.647 322.228,106.131 322.283,105.861 322.986 " stroke="none" fill="#1cccfc" fill-rule="evenodd"></path><path id="path2" d="M96.447 138.977 C 95.782 141.622,95.813 265.253,96.480 265.920 C 96.998 266.438,182.440 266.653,186.144 266.146 C 187.757 265.925,188.825 265.200,187.538 265.200 C 187.284 265.200,186.461 264.731,185.709 264.158 C 183.570 262.526,181.390 262.427,147.262 262.413 C 112.345 262.399,113.793 262.499,113.010 260.032 C 112.842 259.501,111.891 259.045,109.728 258.457 C 103.460 256.753,104.000 262.581,104.000 196.600 C 104.000 156.744,103.872 140.245,103.553 138.977 L 103.105 137.200 100.000 137.200 L 96.895 137.200 96.447 138.977 M296.447 138.977 C 296.128 140.245,296.000 156.744,296.000 196.600 C 296.000 262.581,296.540 256.753,290.272 258.457 C 288.109 259.045,287.158 259.501,286.990 260.032 C 286.207 262.499,287.620 262.400,253.067 262.400 C 219.476 262.400,216.291 262.548,214.334 264.194 C 213.726 264.705,212.998 265.206,212.715 265.307 C 212.432 265.408,212.350 265.650,212.533 265.845 C 213.062 266.409,302.772 266.521,303.449 265.959 C 304.180 265.353,304.281 141.870,303.553 138.977 L 303.105 137.200 300.000 137.200 L 296.895 137.200 296.447 138.977 " stroke="none" fill="#fcac5c" fill-rule="evenodd"></path><path id="path3" d="M89.090 64.616 L 87.594 65.633 87.697 90.701 L 87.800 115.768 89.159 116.684 C 90.432 117.542,90.916 117.600,96.784 117.600 L 103.050 117.600 104.075 116.500 C 104.939 115.573,105.135 114.902,105.324 112.230 C 105.701 106.919,107.052 105.766,113.604 105.168 C 119.932 104.590,188.382 104.897,190.600 105.514 C 191.659 105.808,192.706 106.540,193.696 107.679 C 194.518 108.626,195.547 109.805,195.981 110.300 C 196.678 111.094,197.153 111.200,200.000 111.200 C 203.542 111.200,203.098 111.448,206.252 107.708 C 207.077 106.729,208.295 105.814,209.139 105.536 C 211.119 104.886,279.727 104.558,286.387 105.167 C 292.949 105.767,294.299 106.917,294.676 112.230 C 294.865 114.902,295.061 115.573,295.925 116.500 L 296.950 117.600 303.216 117.600 C 309.084 117.600,309.568 117.542,310.841 116.684 L 312.200 115.768 312.200 112.396 L 312.200 109.025 309.439 107.612 C 305.108 105.397,305.023 105.202,304.872 97.073 C 304.707 88.141,305.347 88.800,296.838 88.799 C 287.438 88.796,286.400 88.041,286.400 81.200 C 286.400 74.011,287.164 73.600,300.530 73.600 C 312.638 73.600,312.400 73.697,312.400 68.785 L 312.400 65.629 310.907 64.614 L 309.414 63.600 200.000 63.600 L 90.586 63.600 89.090 64.616 M273.871 74.628 C 275.690 75.963,276.399 77.807,276.399 81.200 C 276.399 87.077,274.400 88.937,268.306 88.732 L 264.412 88.600 262.906 87.094 L 261.400 85.588 261.268 81.694 C 261.118 77.231,261.795 75.631,264.408 74.281 C 266.428 73.237,272.268 73.452,273.871 74.628 M89.186 283.298 L 87.800 284.232 87.800 296.995 L 87.800 309.759 90.570 311.179 C 94.418 313.152,94.973 314.025,95.114 318.329 C 95.269 323.056,94.492 324.442,90.590 326.400 L 87.800 327.800 87.684 331.075 L 87.568 334.350 89.077 335.375 L 90.586 336.400 200.000 336.400 L 309.414 336.400 310.910 335.384 L 312.406 334.367 312.303 309.299 L 312.200 284.232 310.812 283.296 L 309.423 282.360 262.812 282.480 C 210.719 282.614,215.186 282.344,213.434 285.468 C 212.969 286.297,211.961 287.380,211.194 287.874 C 208.456 289.636,207.901 290.122,207.124 291.439 C 204.555 295.794,195.778 295.715,192.788 291.311 C 192.224 290.480,190.805 289.165,189.635 288.389 C 188.375 287.553,187.198 286.373,186.747 285.493 C 185.136 282.354,189.416 282.614,137.204 282.482 L 90.573 282.363 89.186 283.298 M198.204 311.776 C 202.453 313.551,202.533 323.473,198.316 325.638 C 196.102 326.775,110.266 326.833,108.006 325.699 C 103.804 323.591,103.515 314.810,107.559 312.108 L 108.918 311.200 152.872 311.200 C 190.221 311.200,197.033 311.287,198.204 311.776 " stroke="none" fill="#83dbfb" fill-rule="evenodd"></path><path id="path4" d="M91.800 12.365 C 89.414 12.673,87.917 13.593,86.762 15.461 C 86.294 16.219,85.014 17.443,83.917 18.181 C 82.821 18.920,81.322 20.417,80.587 21.509 C 79.836 22.625,78.480 23.946,77.493 24.524 C 76.527 25.090,75.264 26.269,74.685 27.143 C 74.107 28.017,72.800 29.422,71.782 30.266 C 68.688 32.830,68.400 33.759,68.400 41.171 L 68.400 47.573 69.748 48.921 L 71.095 50.268 85.013 50.534 C 103.128 50.880,296.872 50.880,314.987 50.534 L 328.905 50.268 330.252 48.921 L 331.600 47.573 331.600 41.167 C 331.600 33.687,331.523 33.454,327.843 29.727 C 326.499 28.367,324.808 26.657,324.085 25.927 C 323.362 25.197,321.885 23.700,320.802 22.600 C 319.720 21.500,318.372 20.150,317.806 19.600 C 317.240 19.050,315.568 17.411,314.089 15.959 C 312.610 14.506,310.950 13.066,310.400 12.759 C 309.342 12.167,96.307 11.783,91.800 12.365 M309.600 13.150 C 310.150 13.453,311.813 14.893,313.296 16.350 C 317.560 20.540,318.300 21.273,320.468 23.446 C 321.590 24.571,322.979 25.962,323.554 26.536 C 324.129 27.111,325.965 28.988,327.634 30.708 L 330.668 33.836 330.934 38.180 C 331.424 46.184,331.377 46.619,329.831 48.306 L 328.461 49.800 200.000 49.800 L 71.539 49.800 70.169 48.306 C 68.623 46.619,68.576 46.184,69.066 38.180 L 69.332 33.836 72.366 30.708 C 74.035 28.988,75.871 27.112,76.447 26.538 C 77.024 25.964,78.486 24.506,79.698 23.298 C 85.378 17.637,89.904 13.204,90.058 13.151 C 92.597 12.281,308.019 12.280,309.600 13.150 M170.041 26.614 C 168.115 28.808,168.158 34.021,170.119 35.922 L 171.438 37.200 200.041 37.200 L 228.643 37.200 229.922 35.881 C 231.837 33.905,231.857 28.776,229.959 26.614 L 228.717 25.200 200.000 25.200 L 171.283 25.200 170.041 26.614 M229.278 26.675 C 230.941 28.268,230.984 34.107,229.345 35.745 L 228.291 36.800 200.000 36.800 L 171.709 36.800 170.655 35.745 C 169.050 34.141,169.063 28.405,170.675 26.722 L 171.750 25.600 199.953 25.600 L 228.156 25.600 229.278 26.675 M120.519 118.772 C 117.811 120.448,118.000 115.772,118.000 181.200 C 118.000 245.838,117.850 241.680,120.246 243.565 C 121.302 244.396,121.477 244.400,153.154 244.416 C 177.320 244.428,185.710 244.556,187.943 244.948 L 190.887 245.464 192.228 244.200 C 194.498 242.058,194.400 244.753,194.393 184.474 L 194.387 128.200 193.490 126.617 C 192.997 125.747,191.929 124.577,191.116 124.017 C 190.303 123.458,189.093 122.241,188.427 121.314 C 186.034 117.984,188.548 118.214,153.200 118.090 C 122.499 117.982,121.772 117.998,120.519 118.772 M219.200 118.277 C 217.550 118.346,215.786 118.498,215.280 118.614 C 214.275 118.845,207.271 125.589,206.363 127.200 C 205.626 128.508,205.287 239.879,206.015 241.636 C 206.256 242.218,207.057 243.280,207.794 243.994 L 209.135 245.294 211.700 244.847 C 213.445 244.543,224.476 244.400,246.186 244.400 C 277.280 244.400,278.139 244.380,279.385 243.609 C 282.255 241.835,282.050 246.927,281.918 180.707 L 281.800 121.213 280.293 119.707 L 278.787 118.200 250.493 118.176 C 234.932 118.162,220.850 118.208,219.200 118.277 M184.926 119.262 C 185.407 119.516,187.509 121.430,189.598 123.514 L 193.395 127.303 193.666 130.551 C 193.815 132.338,193.951 157.805,193.968 187.146 L 194.000 240.491 193.124 242.049 C 191.849 244.319,190.977 244.766,188.590 244.374 C 187.496 244.195,171.988 244.037,154.128 244.024 L 121.657 244.000 120.228 242.653 L 118.800 241.306 118.800 181.222 L 118.800 121.138 119.969 119.969 L 121.138 118.800 152.596 118.800 C 175.619 118.800,184.287 118.924,184.926 119.262 M279.840 120.160 L 281.200 121.520 281.200 181.241 L 281.200 240.962 279.922 242.281 L 278.643 243.600 247.449 243.600 C 226.544 243.600,215.088 243.750,212.718 244.054 C 209.451 244.472,209.118 244.450,208.350 243.754 C 206.300 241.900,206.400 244.912,206.400 184.780 C 206.400 121.622,206.113 127.070,209.570 124.581 C 210.576 123.856,211.728 122.704,212.128 122.022 C 214.015 118.807,212.967 118.899,248.140 118.846 L 278.480 118.800 279.840 120.160 M95.153 132.753 L 93.600 134.306 93.600 200.139 L 93.600 265.972 94.824 267.366 L 96.048 268.760 142.724 268.900 C 194.399 269.055,191.788 268.913,193.016 271.636 C 195.553 277.262,204.441 277.274,206.975 271.655 C 208.231 268.871,205.236 269.036,257.077 268.890 L 303.954 268.758 305.177 267.365 L 306.400 265.972 306.400 200.139 L 306.400 134.306 304.847 132.753 C 302.470 130.376,297.530 130.376,295.153 132.753 L 293.600 134.306 293.586 190.653 C 293.574 237.349,293.475 247.542,293.008 250.167 C 291.861 256.601,293.388 256.378,250.326 256.390 C 212.508 256.401,215.408 256.152,211.803 259.701 C 210.408 261.076,208.441 262.898,207.433 263.752 C 206.425 264.606,205.600 265.551,205.600 265.852 C 205.600 267.437,204.133 268.000,200.000 268.000 C 195.896 268.000,194.400 267.436,194.400 265.889 C 194.400 265.155,192.413 263.085,190.484 261.808 C 189.573 261.205,188.351 260.087,187.768 259.322 C 185.366 256.173,188.352 256.404,150.000 256.392 C 106.564 256.378,108.140 256.606,106.992 250.167 C 106.525 247.542,106.426 237.349,106.414 190.653 L 106.400 134.306 104.847 132.753 C 103.295 131.200,103.293 131.200,100.000 131.200 C 96.707 131.200,96.705 131.200,95.153 132.753 M103.553 138.977 C 103.872 140.245,104.000 156.744,104.000 196.600 C 104.000 262.581,103.460 256.753,109.728 258.457 C 111.891 259.045,112.842 259.501,113.010 260.032 C 113.793 262.499,112.345 262.399,147.262 262.413 C 181.390 262.427,183.570 262.526,185.709 264.158 C 186.461 264.731,187.284 265.200,187.538 265.200 C 188.825 265.200,187.757 265.925,186.144 266.146 C 182.440 266.653,96.998 266.438,96.480 265.920 C 95.813 265.253,95.782 141.622,96.447 138.977 L 96.895 137.200 100.000 137.200 L 103.105 137.200 103.553 138.977 M303.553 138.977 C 304.281 141.870,304.180 265.353,303.449 265.959 C 302.772 266.521,213.062 266.409,212.533 265.845 C 212.350 265.650,212.432 265.408,212.715 265.307 C 212.998 265.206,213.726 264.705,214.334 264.194 C 216.291 262.548,219.476 262.400,253.067 262.400 C 287.620 262.400,286.207 262.499,286.990 260.032 C 287.158 259.501,288.109 259.045,290.272 258.457 C 296.540 256.753,296.000 262.581,296.000 196.600 C 296.000 156.744,296.128 140.245,296.447 138.977 L 296.895 137.200 300.000 137.200 L 303.105 137.200 303.553 138.977 M132.613 139.013 C 130.383 141.244,130.456 146.150,132.753 148.447 C 134.305 149.999,134.308 150.000,137.593 150.000 C 142.481 150.000,143.600 148.822,143.600 143.681 L 143.600 140.083 142.186 138.841 C 139.931 136.861,134.671 136.956,132.613 139.013 M157.814 138.841 L 156.400 140.083 156.400 143.681 C 156.400 147.241,156.415 147.295,157.760 148.640 L 159.120 150.000 168.747 150.000 L 178.373 150.000 179.787 148.587 C 181.921 146.452,181.951 141.071,179.840 138.960 L 178.480 137.600 168.854 137.600 L 159.228 137.600 157.814 138.841 M220.078 138.919 C 218.837 140.200,218.800 140.341,218.800 143.759 C 218.800 148.874,219.919 150.000,225.000 150.000 C 230.093 150.000,231.200 148.879,231.200 143.718 C 231.200 138.583,230.198 137.600,224.959 137.600 C 221.410 137.600,221.338 137.619,220.078 138.919 M244.960 138.960 C 242.890 141.030,242.883 146.383,244.947 148.572 L 246.294 150.000 256.187 150.000 L 266.080 150.000 267.440 148.640 C 269.446 146.634,269.512 141.239,267.559 139.014 L 266.317 137.600 256.319 137.600 L 246.320 137.600 244.960 138.960 M141.881 139.278 C 143.709 141.051,143.869 145.943,142.164 147.969 C 140.671 149.744,134.767 149.858,133.055 148.145 C 131.393 146.483,131.464 140.874,133.169 139.169 C 134.995 137.344,139.949 137.406,141.881 139.278 M179.169 139.036 C 180.897 140.490,181.062 146.574,179.418 148.218 L 178.436 149.200 168.654 149.200 L 158.871 149.200 157.836 147.969 C 156.159 145.977,156.294 141.160,158.078 139.319 L 159.357 138.000 168.648 138.000 L 177.939 138.000 179.169 139.036 M229.481 139.278 C 230.762 140.520,230.800 140.652,230.800 143.837 C 230.800 148.378,229.570 149.600,225.000 149.600 C 220.443 149.600,219.200 148.374,219.200 143.878 C 219.200 139.156,220.333 138.000,224.959 138.000 C 228.020 138.000,228.221 138.057,229.481 139.278 M266.925 139.122 C 268.660 140.933,268.559 147.058,266.769 148.564 L 265.539 149.600 256.212 149.600 L 246.885 149.600 245.642 148.440 C 243.739 146.661,243.731 140.634,245.631 139.036 L 246.861 138.000 256.356 138.000 L 265.850 138.000 266.925 139.122 M220.160 163.760 C 217.597 166.323,218.247 173.073,221.204 174.602 C 223.149 175.608,264.966 175.481,266.506 174.465 C 269.426 172.540,269.937 166.363,267.387 163.813 L 265.973 162.400 243.747 162.400 L 221.520 162.400 220.160 163.760 M132.441 164.214 C 130.498 166.427,130.563 171.443,132.560 173.440 L 133.920 174.800 156.319 174.800 L 178.717 174.800 179.959 173.386 C 181.885 171.192,181.842 165.979,179.881 164.078 L 178.562 162.800 156.122 162.800 L 133.683 162.800 132.441 164.214 M179.345 164.255 C 180.950 165.859,180.937 171.595,179.325 173.278 L 178.250 174.400 156.247 174.400 L 134.244 174.400 133.122 173.325 C 131.450 171.723,131.420 166.049,133.075 164.322 L 134.150 163.200 156.220 163.200 L 178.291 163.200 179.345 164.255 M267.018 164.182 C 268.545 165.709,268.497 171.794,266.945 173.345 L 265.891 174.400 243.706 174.400 L 221.521 174.400 220.360 173.158 C 218.693 171.373,218.621 166.349,220.236 164.431 L 221.271 163.200 243.654 163.200 L 266.036 163.200 267.018 164.182 M132.613 189.013 C 130.383 191.244,130.456 196.150,132.753 198.447 L 134.306 200.000 156.340 200.000 L 178.373 200.000 179.787 198.587 C 181.921 196.452,181.951 191.071,179.840 188.960 L 178.480 187.600 156.253 187.600 L 134.027 187.600 132.613 189.013 M220.078 188.919 C 218.077 190.984,218.124 196.604,220.160 198.640 L 221.520 200.000 243.800 200.000 L 266.080 200.000 267.440 198.640 C 269.446 196.634,269.512 191.239,267.559 189.014 L 266.317 187.600 243.837 187.600 L 221.357 187.600 220.078 188.919 M179.169 189.036 C 180.897 190.490,181.062 196.574,179.418 198.218 L 178.436 199.200 156.273 199.200 L 134.109 199.200 133.055 198.145 C 131.393 196.483,131.464 190.874,133.169 189.169 L 134.338 188.000 156.139 188.000 L 177.939 188.000 179.169 189.036 M266.925 189.122 C 268.660 190.933,268.559 197.058,266.769 198.564 L 265.539 199.600 243.783 199.600 L 222.028 199.600 220.614 198.359 C 218.530 196.529,218.453 191.408,220.478 189.319 L 221.757 188.000 243.804 188.000 L 265.850 188.000 266.925 189.122 M220.160 213.760 C 217.597 216.323,218.247 223.073,221.204 224.602 C 223.149 225.608,264.966 225.481,266.506 224.465 C 269.426 222.540,269.937 216.363,267.387 213.813 L 265.973 212.400 243.747 212.400 L 221.520 212.400 220.160 213.760 M132.441 214.214 C 130.498 216.427,130.563 221.443,132.560 223.440 L 133.920 224.800 156.319 224.800 L 178.717 224.800 179.959 223.386 C 181.885 221.192,181.842 215.979,179.881 214.078 L 178.562 212.800 156.122 212.800 L 133.683 212.800 132.441 214.214 M179.345 214.255 C 180.950 215.859,180.937 221.595,179.325 223.278 L 178.250 224.400 156.247 224.400 L 134.244 224.400 133.122 223.325 C 131.450 221.723,131.420 216.049,133.075 214.322 L 134.150 213.200 156.220 213.200 L 178.291 213.200 179.345 214.255 M267.018 214.182 C 268.545 215.709,268.497 221.794,266.945 223.345 L 265.891 224.400 243.706 224.400 L 221.521 224.400 220.360 223.158 C 218.693 221.373,218.621 216.349,220.236 214.431 L 221.271 213.200 243.654 213.200 L 266.036 213.200 267.018 214.182 M80.506 349.500 L 71.212 349.615 69.806 351.021 L 68.400 352.427 68.400 358.829 C 68.400 366.241,68.688 367.170,71.782 369.734 C 72.800 370.578,74.107 371.983,74.685 372.857 C 75.264 373.731,76.508 374.899,77.451 375.451 C 78.394 376.003,79.802 377.343,80.582 378.428 C 81.361 379.513,82.892 381.042,83.983 381.826 C 85.074 382.609,86.343 383.860,86.803 384.605 C 87.264 385.350,88.306 386.374,89.120 386.880 L 90.600 387.800 199.600 387.800 C 259.550 387.800,309.116 387.656,309.746 387.481 C 310.736 387.205,312.073 386.032,317.815 380.400 C 318.376 379.850,319.720 378.500,320.802 377.400 C 321.885 376.300,323.362 374.803,324.085 374.073 C 332.142 365.942,331.600 367.041,331.600 358.833 L 331.600 352.427 330.252 351.079 L 328.905 349.732 314.987 349.466 C 301.986 349.218,100.944 349.247,80.506 349.500 M329.831 351.694 C 331.377 353.381,331.424 353.816,330.934 361.820 L 330.668 366.164 327.634 369.292 C 325.965 371.012,324.129 372.889,323.554 373.464 C 322.979 374.038,321.610 375.410,320.511 376.511 C 312.066 384.977,310.125 386.754,308.969 387.075 C 307.423 387.505,94.370 387.497,91.844 387.067 C 90.128 386.775,89.502 386.356,86.757 383.667 C 82.763 379.754,82.465 379.459,79.702 376.705 C 78.436 375.443,76.950 373.962,76.400 373.415 C 75.850 372.867,74.035 371.012,72.366 369.292 L 69.332 366.164 69.066 361.820 C 68.587 353.997,68.644 353.405,70.033 351.823 L 71.266 350.419 77.933 350.289 C 81.600 350.218,139.469 350.169,206.531 350.180 L 328.462 350.200 329.831 351.694 M170.078 364.119 C 168.163 366.095,168.143 371.224,170.041 373.386 L 171.283 374.800 200.000 374.800 L 228.717 374.800 229.959 373.386 C 231.885 371.192,231.842 365.979,229.881 364.078 L 228.562 362.800 199.959 362.800 L 171.357 362.800 170.078 364.119 M229.345 364.255 C 230.984 365.893,230.941 371.732,229.278 373.325 L 228.156 374.400 200.000 374.400 L 171.844 374.400 170.722 373.325 C 169.059 371.732,169.016 365.893,170.655 364.255 L 171.709 363.200 200.000 363.200 L 228.291 363.200 229.345 364.255 " stroke="none" fill="#fc843c" fill-rule="evenodd"></path><path id="path5" d="M95.800 12.811 C 92.720 12.971,90.136 13.124,90.058 13.151 C 89.904 13.204,85.378 17.637,79.698 23.298 C 78.486 24.506,77.024 25.964,76.447 26.538 C 75.871 27.112,74.035 28.988,72.366 30.708 L 69.332 33.836 69.066 38.180 C 68.576 46.184,68.623 46.619,70.169 48.306 L 71.539 49.800 200.000 49.800 L 328.461 49.800 329.831 48.306 C 331.377 46.619,331.424 46.184,330.934 38.180 L 330.668 33.836 327.634 30.708 C 325.965 28.988,324.129 27.111,323.554 26.536 C 322.979 25.962,321.590 24.571,320.468 23.446 C 318.300 21.273,317.560 20.540,313.296 16.350 C 311.813 14.893,310.150 13.453,309.600 13.150 C 308.494 12.542,107.135 12.223,95.800 12.811 M299.562 15.462 L 303.247 15.723 304.012 17.223 C 304.850 18.866,307.308 21.101,308.654 21.445 C 309.379 21.631,309.534 22.023,309.681 24.044 C 309.895 27.004,310.404 27.530,313.418 27.904 L 315.800 28.200 315.919 30.455 C 316.068 33.289,316.702 33.912,319.605 34.076 L 321.800 34.200 322.096 36.582 C 322.464 39.549,322.992 40.084,325.780 40.315 L 328.000 40.499 328.000 43.586 L 328.000 46.672 318.100 47.030 C 305.195 47.497,94.805 47.497,81.900 47.030 L 72.000 46.672 72.000 43.586 L 72.000 40.499 74.220 40.315 C 77.008 40.084,77.536 39.549,77.904 36.582 L 78.200 34.200 80.395 34.076 C 83.298 33.912,83.932 33.289,84.081 30.455 L 84.200 28.200 86.582 27.904 C 89.603 27.529,90.105 27.006,90.322 24.012 C 90.430 22.519,90.677 21.600,90.970 21.600 C 92.226 21.600,95.130 19.197,95.969 17.464 L 96.854 15.637 99.327 15.495 C 103.952 15.231,295.858 15.199,299.562 15.462 M169.400 23.006 C 168.520 23.326,167.746 23.591,167.680 23.594 C 166.255 23.665,165.836 35.670,167.181 37.875 C 168.469 39.989,168.577 39.996,200.000 39.996 C 236.428 39.996,233.596 40.707,233.599 31.560 C 233.600 25.740,233.214 24.250,231.457 23.288 C 229.681 22.316,172.019 22.054,169.400 23.006 M229.959 26.614 C 231.857 28.776,231.837 33.905,229.922 35.881 L 228.643 37.200 200.041 37.200 L 171.438 37.200 170.119 35.922 C 168.158 34.021,168.115 28.808,170.041 26.614 L 171.283 25.200 200.000 25.200 L 228.717 25.200 229.959 26.614 M90.400 62.800 C 90.400 63.066,127.200 63.200,200.000 63.200 C 272.800 63.200,309.600 63.066,309.600 62.800 C 309.600 62.534,272.800 62.400,200.000 62.400 C 127.200 62.400,90.400 62.534,90.400 62.800 M265.332 74.260 C 265.181 74.667,264.927 75.090,264.767 75.200 C 264.425 75.434,271.161 75.235,271.904 74.989 C 272.521 74.784,273.029 74.914,272.918 75.247 C 272.821 75.538,274.787 77.446,275.032 77.300 C 275.208 77.195,275.186 77.525,274.971 78.200 C 274.752 78.891,274.590 85.539,274.800 85.233 C 274.910 85.073,275.333 84.819,275.740 84.668 C 276.670 84.324,276.605 77.421,275.666 76.840 C 275.372 76.659,275.147 76.396,275.166 76.255 C 275.255 75.592,275.161 75.534,274.663 75.948 C 273.985 76.510,273.466 76.044,274.023 75.372 C 274.311 75.025,274.310 74.792,274.019 74.612 C 273.789 74.469,273.597 74.498,273.594 74.676 C 273.591 74.854,273.417 74.730,273.209 74.400 C 272.577 73.400,265.695 73.278,265.332 74.260 M295.100 73.899 C 297.795 73.968,302.205 73.968,304.900 73.899 C 307.595 73.830,305.390 73.773,300.000 73.773 C 294.610 73.773,292.405 73.830,295.100 73.899 M270.500 74.293 C 269.565 74.377,268.035 74.377,267.100 74.293 C 266.165 74.209,266.930 74.140,268.800 74.140 C 270.670 74.140,271.435 74.209,270.500 74.293 M289.476 74.278 C 289.327 74.519,289.488 74.825,289.835 74.958 C 290.966 75.392,309.133 75.233,309.409 74.786 C 309.583 74.504,306.530 74.409,299.832 74.486 C 293.864 74.555,289.950 74.451,289.873 74.220 C 289.801 74.004,289.629 74.029,289.476 74.278 M287.408 75.709 C 287.001 76.291,286.947 76.695,287.231 77.037 C 287.489 77.348,287.497 77.616,287.254 77.767 C 287.042 77.898,286.808 77.823,286.734 77.601 C 286.660 77.379,286.625 78.972,286.655 81.141 C 286.710 85.149,286.984 86.800,287.592 86.800 C 287.996 86.800,287.913 86.017,287.427 85.238 C 287.221 84.908,287.226 84.769,287.438 84.901 C 287.647 85.031,287.745 83.689,287.670 81.731 C 287.598 79.863,287.671 78.035,287.831 77.667 C 287.992 77.300,288.086 76.699,288.041 76.330 C 287.990 75.906,288.297 75.610,288.880 75.522 L 289.800 75.384 288.897 75.128 C 288.244 74.944,287.832 75.105,287.408 75.709 M263.212 75.786 C 262.935 76.119,262.519 76.274,262.287 76.130 C 262.025 75.968,261.960 76.118,262.115 76.524 C 262.269 76.924,262.100 77.334,261.683 77.577 C 261.294 77.804,261.215 77.981,261.500 77.988 C 261.857 77.997,262.000 78.913,262.000 81.200 C 262.000 83.490,261.858 84.402,261.500 84.406 C 261.117 84.411,261.121 84.489,261.521 84.743 C 261.808 84.925,261.988 85.327,261.921 85.637 C 261.837 86.028,262.100 86.158,262.781 86.061 C 263.684 85.933,263.716 85.982,263.181 86.661 C 262.641 87.348,262.652 87.359,263.339 86.819 C 264.018 86.284,264.067 86.316,263.939 87.219 C 263.842 87.900,263.972 88.163,264.363 88.079 C 264.673 88.012,265.075 88.192,265.257 88.479 C 265.511 88.879,265.589 88.883,265.594 88.500 C 265.598 88.142,266.510 88.000,268.800 88.000 C 271.087 88.000,272.003 88.143,272.012 88.500 C 272.019 88.785,272.196 88.706,272.423 88.317 C 272.670 87.893,273.083 87.727,273.511 87.880 C 273.890 88.016,274.065 87.978,273.899 87.796 C 273.734 87.614,273.897 87.135,274.261 86.732 C 274.626 86.330,274.744 86.000,274.524 86.000 C 274.304 86.000,273.798 86.360,273.400 86.800 C 272.775 87.490,272.168 87.600,268.978 87.600 L 265.280 87.600 263.840 86.160 L 262.400 84.720 262.400 81.086 C 262.400 77.907,262.509 77.336,263.268 76.527 C 263.746 76.019,264.041 75.508,263.925 75.392 C 263.809 75.276,263.488 75.453,263.212 75.786 M275.893 82.900 C 275.809 83.835,275.740 83.070,275.740 81.200 C 275.740 79.330,275.809 78.565,275.893 79.500 C 275.977 80.435,275.977 81.965,275.893 82.900 M288.488 86.953 C 288.567 87.908,290.400 89.287,290.400 88.391 C 290.400 87.606,302.836 87.900,303.443 88.700 C 303.796 89.165,303.979 89.224,303.987 88.876 C 303.994 88.588,304.172 88.459,304.383 88.589 C 304.593 88.719,304.656 89.135,304.524 89.513 C 304.321 90.089,304.373 90.114,304.841 89.672 C 306.384 88.213,303.992 87.600,296.756 87.600 C 292.664 87.600,290.000 87.447,290.000 87.213 C 290.000 86.999,289.700 86.940,289.334 87.081 C 288.906 87.245,288.766 87.179,288.941 86.896 C 289.091 86.653,289.031 86.343,288.809 86.206 C 288.572 86.059,288.439 86.367,288.488 86.953 M305.273 90.087 C 304.940 90.420,304.826 92.464,304.889 96.980 L 304.978 103.400 305.100 97.228 C 305.174 93.454,305.395 90.847,305.668 90.518 C 306.239 89.830,305.900 89.460,305.273 90.087 M305.600 97.000 C 305.600 100.867,305.751 103.200,306.000 103.200 C 306.249 103.200,306.400 100.867,306.400 97.000 C 306.400 93.133,306.249 90.800,306.000 90.800 C 305.751 90.800,305.600 93.133,305.600 97.000 M305.481 103.853 C 305.158 104.176,305.908 105.600,306.402 105.600 C 306.607 105.600,306.657 105.285,306.513 104.900 C 306.287 104.298,306.341 104.274,306.897 104.726 C 307.253 105.015,307.479 105.590,307.399 106.003 C 307.293 106.553,307.425 106.688,307.893 106.509 C 308.366 106.327,308.443 106.411,308.189 106.832 C 307.908 107.299,307.956 107.311,308.460 106.903 C 308.797 106.630,309.231 106.540,309.424 106.703 C 309.616 106.867,309.541 106.696,309.258 106.324 C 308.974 105.952,308.477 105.749,308.154 105.873 C 307.831 105.997,307.613 105.941,307.668 105.749 C 307.960 104.745,306.154 103.180,305.481 103.853 M115.494 105.039 C 114.168 106.365,115.058 106.400,150.000 106.400 C 184.942 106.400,185.832 106.365,184.506 105.039 C 184.193 104.727,115.807 104.727,115.494 105.039 M215.494 105.039 C 215.363 105.171,215.352 105.531,215.470 105.839 C 215.793 106.680,283.778 106.680,284.618 105.839 C 285.100 105.357,285.091 105.244,284.557 105.039 C 283.743 104.726,215.807 104.727,215.494 105.039 M111.161 105.485 C 111.571 105.647,111.463 105.850,110.761 106.239 C 109.854 106.742,109.909 106.772,111.749 106.786 C 113.335 106.797,113.615 106.700,113.252 106.263 C 113.007 105.968,112.925 105.608,113.070 105.463 C 113.215 105.318,112.718 105.214,111.967 105.232 C 111.215 105.249,110.852 105.363,111.161 105.485 M167.300 105.500 C 157.785 105.560,142.215 105.560,132.700 105.500 C 123.185 105.440,130.970 105.391,150.000 105.391 C 169.030 105.391,176.815 105.440,167.300 105.500 M185.200 105.613 C 185.200 106.250,186.400 106.560,186.907 106.053 C 187.550 105.410,188.016 105.492,187.745 106.200 C 187.587 106.612,187.769 106.800,188.324 106.800 C 188.770 106.800,189.464 106.901,189.867 107.025 C 190.270 107.149,190.100 106.961,189.488 106.606 C 188.877 106.252,188.492 105.775,188.633 105.546 C 188.968 105.005,186.708 105.250,186.306 105.799 C 186.123 106.048,186.010 106.011,186.006 105.700 C 186.003 105.425,185.820 105.200,185.600 105.200 C 185.380 105.200,185.200 105.386,185.200 105.613 M210.000 105.569 C 210.000 105.792,209.744 105.877,209.431 105.757 C 208.655 105.459,207.112 106.335,207.451 106.882 C 207.607 107.135,207.542 107.211,207.298 107.061 C 206.753 106.724,204.800 109.026,204.800 110.006 C 204.800 110.953,202.286 111.385,198.396 111.107 C 196.895 110.999,195.449 111.046,195.184 111.210 C 194.918 111.374,197.056 111.509,199.935 111.509 C 202.814 111.509,205.131 111.394,205.085 111.254 C 205.038 111.114,205.107 111.000,205.239 111.000 C 205.921 111.000,206.804 109.844,206.417 109.457 C 205.761 108.801,205.929 108.324,206.727 108.577 C 207.788 108.914,209.620 106.928,208.790 106.341 C 208.310 106.002,208.337 105.969,208.933 106.162 C 209.336 106.293,209.876 106.403,210.133 106.406 C 210.410 106.410,210.356 106.588,210.000 106.844 C 209.501 107.203,209.523 107.235,210.133 107.038 C 210.536 106.907,211.295 106.800,211.820 106.800 C 212.531 106.800,212.712 106.636,212.529 106.160 C 212.315 105.602,212.392 105.588,213.132 106.050 C 214.012 106.600,215.308 105.975,214.652 105.318 C 214.489 105.156,214.189 105.288,213.984 105.612 C 213.780 105.935,213.609 106.009,213.606 105.775 C 213.603 105.541,212.790 105.308,211.800 105.256 C 210.788 105.204,210.000 105.341,210.000 105.569 M267.300 105.500 C 257.785 105.560,242.215 105.560,232.700 105.500 C 223.185 105.440,230.970 105.391,250.000 105.391 C 269.030 105.391,276.815 105.440,267.300 105.500 M285.600 105.714 C 285.600 105.919,286.039 105.977,286.575 105.842 C 287.112 105.707,287.663 105.778,287.799 105.999 C 287.936 106.219,288.532 106.403,289.124 106.406 C 289.996 106.411,290.086 106.493,289.600 106.841 C 289.118 107.185,289.177 107.231,289.900 107.072 C 290.395 106.964,290.800 107.049,290.800 107.261 C 290.800 107.473,290.935 107.575,291.100 107.487 C 291.493 107.277,292.804 108.663,292.500 108.967 C 292.372 109.095,292.460 109.200,292.696 109.200 C 292.933 109.200,293.037 109.603,292.928 110.100 C 292.769 110.823,292.815 110.882,293.159 110.400 C 293.507 109.914,293.589 110.004,293.594 110.876 C 293.597 111.468,293.781 112.064,294.001 112.201 C 294.222 112.337,294.293 112.888,294.158 113.425 C 294.023 113.961,294.081 114.400,294.286 114.400 C 294.491 114.400,294.671 113.591,294.687 112.603 C 294.705 111.443,294.566 110.897,294.295 111.065 C 294.020 111.235,293.957 110.917,294.111 110.143 C 294.377 108.816,294.127 108.262,293.091 107.880 C 292.701 107.736,292.264 107.299,292.120 106.909 C 291.738 105.873,291.184 105.623,289.857 105.889 C 289.083 106.043,288.765 105.980,288.935 105.705 C 289.103 105.434,288.557 105.295,287.397 105.313 C 286.409 105.329,285.600 105.509,285.600 105.714 M106.975 107.252 C 106.077 108.209,105.998 108.402,106.639 108.071 C 107.175 107.794,107.644 107.775,107.939 108.019 C 108.262 108.286,108.286 108.262,108.019 107.939 C 107.776 107.646,107.781 107.208,108.033 106.739 C 108.597 105.685,108.319 105.820,106.975 107.252 M191.376 106.633 C 190.650 107.225,190.648 107.250,191.345 107.028 C 191.892 106.854,192.028 106.949,191.859 107.389 C 191.719 107.756,191.973 108.171,192.515 108.459 C 193.316 108.886,193.348 108.868,192.851 108.265 C 192.375 107.688,192.397 107.600,193.018 107.600 C 193.783 107.600,193.450 107.012,192.667 106.982 C 192.410 106.972,192.245 106.747,192.300 106.482 C 192.430 105.853,192.308 105.873,191.376 106.633 M193.825 109.172 C 193.152 109.916,193.160 109.936,194.063 109.703 C 194.905 109.486,194.944 109.530,194.443 110.140 C 193.957 110.732,193.970 110.786,194.543 110.566 C 195.266 110.289,195.452 109.200,194.776 109.200 C 194.543 109.200,194.464 109.020,194.600 108.800 C 195.009 108.138,194.570 108.349,193.825 109.172 M106.183 110.853 C 105.971 111.523,105.837 111.587,105.562 111.153 C 105.322 110.774,105.210 111.029,105.206 111.967 C 105.203 112.718,105.318 113.215,105.463 113.070 C 105.608 112.925,105.968 113.007,106.263 113.252 C 106.699 113.614,106.800 113.350,106.800 111.849 C 106.800 109.837,106.605 109.523,106.183 110.853 M196.662 112.300 C 196.560 112.465,198.062 112.600,200.000 112.600 C 201.938 112.600,203.440 112.465,203.338 112.300 C 203.236 112.135,201.734 112.000,200.000 112.000 C 198.266 112.000,196.764 112.135,196.662 112.300 M294.244 115.429 C 293.282 117.936,295.784 118.839,303.301 118.699 L 309.800 118.579 303.076 118.489 C 298.115 118.423,296.428 118.279,296.638 117.938 C 296.821 117.643,296.747 117.585,296.435 117.778 C 296.128 117.968,295.994 117.875,296.073 117.530 C 296.277 116.640,294.544 114.649,294.244 115.429 M104.526 116.095 C 104.073 116.593,103.792 117.250,103.903 117.556 C 104.038 117.928,103.935 118.007,103.590 117.794 C 103.253 117.586,103.175 117.635,103.362 117.938 C 103.572 118.279,101.885 118.423,96.924 118.489 L 90.200 118.579 96.699 118.699 C 103.630 118.828,104.635 118.604,105.653 116.700 C 106.306 115.481,105.485 115.040,104.526 116.095 M119.969 119.969 L 118.800 121.138 118.800 181.222 L 118.800 241.306 120.228 242.653 L 121.657 244.000 154.128 244.024 C 171.988 244.037,187.496 244.195,188.590 244.374 C 190.977 244.766,191.849 244.319,193.124 242.049 L 194.000 240.491 193.968 187.146 C 193.951 157.805,193.815 132.338,193.666 130.551 L 193.395 127.303 189.598 123.514 C 187.509 121.430,185.407 119.516,184.926 119.262 C 184.287 118.924,175.619 118.800,152.596 118.800 L 121.138 118.800 119.969 119.969 M216.334 119.177 C 214.416 119.551,213.027 120.491,212.128 122.022 C 211.728 122.704,210.576 123.856,209.570 124.581 C 206.113 127.070,206.400 121.622,206.400 184.780 C 206.400 244.912,206.300 241.900,208.350 243.754 C 209.118 244.450,209.451 244.472,212.718 244.054 C 215.088 243.750,226.544 243.600,247.449 243.600 L 278.643 243.600 279.922 242.281 L 281.200 240.962 281.200 181.241 L 281.200 121.520 279.840 120.160 L 278.480 118.800 248.140 118.846 C 231.453 118.871,217.140 119.020,216.334 119.177 M181.074 121.460 L 184.348 121.715 184.813 123.655 C 185.370 125.975,186.870 127.406,189.151 127.792 L 190.730 128.058 190.986 131.729 C 191.126 133.748,191.187 159.160,191.121 188.200 L 191.000 241.000 156.200 241.000 L 121.400 241.000 121.297 181.600 C 121.241 148.930,121.280 121.975,121.385 121.700 C 121.591 121.158,174.468 120.945,181.074 121.460 M278.400 181.200 L 278.400 240.800 245.300 240.804 C 227.095 240.807,211.525 240.920,210.700 241.057 L 209.200 241.305 209.200 186.252 L 209.200 131.200 210.717 129.683 C 211.552 128.848,212.796 127.933,213.483 127.649 C 214.246 127.332,214.933 126.639,215.251 125.866 C 215.749 124.654,217.950 122.255,218.932 121.854 C 219.189 121.749,232.675 121.649,248.900 121.632 L 278.400 121.600 278.400 181.200 M132.857 135.204 C 129.470 135.921,128.800 137.342,128.800 143.800 C 128.800 151.669,129.548 152.400,137.600 152.400 C 145.567 152.400,146.200 151.767,146.200 143.800 C 146.200 136.086,145.441 135.200,138.630 134.971 C 136.413 134.896,133.816 135.001,132.857 135.204 M158.400 135.058 C 154.426 135.769,153.800 136.958,153.800 143.800 C 153.800 152.690,153.464 152.509,169.692 152.328 L 181.183 152.200 182.292 151.092 C 184.790 148.594,184.020 136.910,181.275 135.674 C 179.840 135.028,161.353 134.531,158.400 135.058 M217.907 135.263 C 216.266 135.862,215.916 137.655,216.068 144.690 C 216.249 153.022,215.772 152.600,225.000 152.600 C 234.228 152.600,233.751 153.022,233.932 144.690 C 234.089 137.449,233.756 135.872,231.935 135.237 C 230.378 134.695,219.407 134.714,217.907 135.263 M242.926 135.195 C 241.292 135.868,241.020 137.034,241.010 143.400 C 240.994 153.395,240.048 152.800,255.937 152.800 C 272.563 152.800,271.400 153.497,271.400 143.528 C 271.400 134.143,272.900 135.021,256.689 134.917 C 249.600 134.872,243.407 134.996,242.926 135.195 M142.186 138.841 L 143.600 140.083 143.600 143.681 C 143.600 148.822,142.481 150.000,137.593 150.000 C 134.308 150.000,134.305 149.999,132.753 148.447 C 130.456 146.150,130.383 141.244,132.613 139.013 C 134.671 136.956,139.931 136.861,142.186 138.841 M179.840 138.960 C 181.951 141.071,181.921 146.452,179.787 148.587 L 178.373 150.000 168.747 150.000 L 159.120 150.000 157.760 148.640 C 156.415 147.295,156.400 147.241,156.400 143.681 L 156.400 140.083 157.814 138.841 L 159.228 137.600 168.854 137.600 L 178.480 137.600 179.840 138.960 M229.881 138.878 C 231.179 140.136,231.200 140.215,231.200 143.718 C 231.200 148.879,230.093 150.000,225.000 150.000 C 219.919 150.000,218.800 148.874,218.800 143.759 C 218.800 138.601,219.801 137.600,224.959 137.600 C 228.470 137.600,228.596 137.633,229.881 138.878 M267.559 139.014 C 269.512 141.239,269.446 146.634,267.440 148.640 L 266.080 150.000 256.187 150.000 L 246.294 150.000 244.947 148.572 C 242.883 146.383,242.890 141.030,244.960 138.960 L 246.320 137.600 256.319 137.600 L 266.317 137.600 267.559 139.014 M219.073 159.979 C 216.343 160.522,216.216 160.859,216.066 167.945 C 215.836 178.782,213.032 177.800,244.200 177.800 C 274.323 177.800,271.400 178.767,271.400 168.800 C 271.400 162.287,271.180 161.046,269.895 160.312 C 268.879 159.731,221.863 159.423,219.073 159.979 M131.702 160.447 C 129.499 161.083,129.018 162.327,128.861 167.795 C 128.563 178.192,126.326 177.400,156.000 177.400 C 185.894 177.400,183.601 178.138,183.599 168.513 C 183.597 162.471,183.090 161.140,180.521 160.427 C 178.589 159.890,133.565 159.909,131.702 160.447 M267.387 163.813 C 269.937 166.363,269.426 172.540,266.506 174.465 C 264.966 175.481,223.149 175.608,221.204 174.602 C 218.247 173.073,217.597 166.323,220.160 163.760 L 221.520 162.400 243.747 162.400 L 265.973 162.400 267.387 163.813 M179.881 164.078 C 181.842 165.979,181.885 171.192,179.959 173.386 L 178.717 174.800 156.319 174.800 L 133.920 174.800 132.560 173.440 C 130.563 171.443,130.498 166.427,132.441 164.214 L 133.683 162.800 156.122 162.800 L 178.562 162.800 179.881 164.078 M132.857 185.222 C 129.478 185.902,128.800 187.335,128.800 193.800 C 128.800 203.094,126.675 202.452,157.007 202.312 L 181.182 202.200 182.291 201.092 C 184.790 198.595,184.020 186.914,181.275 185.669 C 179.611 184.914,136.374 184.515,132.857 185.222 M217.907 185.258 C 215.685 186.079,215.029 199.611,217.111 201.690 L 218.022 202.600 242.311 202.721 C 269.252 202.856,269.698 202.833,270.708 201.291 C 271.903 199.465,271.728 187.150,270.489 185.911 L 269.578 185.000 244.289 184.927 C 228.065 184.880,218.608 184.999,217.907 185.258 M179.840 188.960 C 181.951 191.071,181.921 196.452,179.787 198.587 L 178.373 200.000 156.340 200.000 L 134.306 200.000 132.753 198.447 C 130.456 196.150,130.383 191.244,132.613 189.013 L 134.027 187.600 156.253 187.600 L 178.480 187.600 179.840 188.960 M267.559 189.014 C 269.512 191.239,269.446 196.634,267.440 198.640 L 266.080 200.000 243.800 200.000 L 221.520 200.000 220.160 198.640 C 218.124 196.604,218.077 190.984,220.078 188.919 L 221.357 187.600 243.837 187.600 L 266.317 187.600 267.559 189.014 M219.073 209.979 C 216.343 210.522,216.216 210.859,216.066 217.945 C 215.836 228.782,213.032 227.800,244.200 227.800 C 274.323 227.800,271.400 228.767,271.400 218.800 C 271.400 212.287,271.180 211.046,269.895 210.312 C 268.879 209.731,221.863 209.423,219.073 209.979 M131.702 210.447 C 129.499 211.083,129.018 212.327,128.861 217.795 C 128.563 228.192,126.326 227.400,156.000 227.400 C 185.894 227.400,183.601 228.138,183.599 218.513 C 183.597 212.471,183.090 211.140,180.521 210.427 C 178.589 209.890,133.565 209.909,131.702 210.447 M267.387 213.813 C 269.937 216.363,269.426 222.540,266.506 224.465 C 264.966 225.481,223.149 225.608,221.204 224.602 C 218.247 223.073,217.597 216.323,220.160 213.760 L 221.520 212.400 243.747 212.400 L 265.973 212.400 267.387 213.813 M179.881 214.078 C 181.842 215.979,181.885 221.192,179.959 223.386 L 178.717 224.800 156.319 224.800 L 133.920 224.800 132.560 223.440 C 130.563 221.443,130.498 216.427,132.441 214.214 L 133.683 212.800 156.122 212.800 L 178.562 212.800 179.881 214.078 M134.500 281.498 C 166.528 281.575,178.400 281.724,178.400 282.051 C 178.400 282.351,178.605 282.328,179.023 281.981 C 179.537 281.554,179.624 281.563,179.523 282.032 C 179.433 282.449,179.840 282.605,181.052 282.618 C 182.516 282.634,182.655 282.557,182.274 281.948 C 181.873 281.305,181.811 281.304,181.335 281.930 C 180.868 282.544,180.822 282.533,180.785 281.800 C 180.745 281.024,180.735 281.023,180.442 281.771 C 180.174 282.455,180.111 282.467,179.885 281.878 C 179.650 281.264,176.271 281.220,135.115 281.303 L 90.600 281.393 134.500 281.498 M217.600 281.511 C 217.600 281.766,217.330 281.871,217.000 281.745 C 216.649 281.610,216.397 281.740,216.394 282.057 C 216.389 282.476,216.299 282.463,216.000 282.000 C 215.742 281.600,215.610 281.567,215.606 281.900 C 215.603 282.175,215.172 282.400,214.649 282.400 C 213.413 282.400,212.503 283.400,213.419 283.752 C 214.104 284.015,215.600 283.389,215.600 282.840 C 215.600 282.657,216.770 282.580,218.200 282.668 C 220.565 282.814,220.800 282.758,220.800 282.050 C 220.800 281.269,219.923 281.114,219.312 281.786 C 219.140 281.974,219.213 282.006,219.472 281.858 C 219.732 281.709,220.048 281.754,220.174 281.958 C 220.548 282.564,219.173 282.195,218.730 281.572 C 218.417 281.130,218.379 281.182,218.563 281.800 C 218.798 282.588,218.793 282.588,218.201 281.824 C 217.870 281.396,217.600 281.256,217.600 281.511 M221.467 281.467 C 221.320 281.613,221.203 281.928,221.206 282.167 C 221.210 282.425,221.340 282.399,221.529 282.102 C 221.777 281.710,231.251 281.581,265.823 281.500 L 309.800 281.396 265.767 281.298 C 241.548 281.244,221.613 281.320,221.467 281.467 M184.623 282.763 C 184.500 282.962,184.804 283.050,185.299 282.958 C 185.795 282.866,185.990 282.893,185.733 283.018 C 185.009 283.370,186.837 286.004,187.644 285.769 C 188.517 285.515,189.456 286.616,188.635 286.931 C 188.284 287.066,187.996 286.885,187.916 286.478 C 187.820 285.994,187.694 285.939,187.476 286.285 C 186.934 287.147,190.233 289.029,191.097 288.351 C 191.719 287.863,191.743 287.873,191.305 288.435 C 190.895 288.960,190.974 289.224,191.763 289.965 C 192.464 290.624,192.796 290.730,193.020 290.368 C 193.190 290.093,193.158 289.979,192.948 290.109 C 192.741 290.237,192.571 289.994,192.571 289.571 C 192.571 288.535,192.671 288.590,193.423 290.044 C 193.777 290.728,193.884 291.175,193.661 291.038 C 192.950 290.599,192.811 291.438,193.444 292.342 C 194.342 293.624,194.776 293.039,194.304 291.182 C 193.874 289.488,191.622 287.292,190.822 287.786 C 190.593 287.928,190.497 287.809,190.607 287.521 C 190.715 287.234,190.264 286.640,189.603 286.200 C 188.943 285.760,188.402 285.299,188.401 285.176 C 188.401 285.054,188.130 284.604,187.799 284.176 C 187.356 283.604,187.258 283.573,187.426 284.060 C 187.552 284.422,187.462 284.838,187.227 284.983 C 186.992 285.128,186.778 285.057,186.750 284.824 C 186.722 284.591,186.655 284.220,186.600 284.000 C 186.545 283.780,186.478 283.330,186.450 283.000 C 186.396 282.351,184.990 282.169,184.623 282.763 M211.203 285.796 C 210.728 286.564,210.398 287.481,210.470 287.834 C 210.653 288.737,212.595 287.183,213.432 285.465 C 214.045 284.207,214.044 284.205,213.309 285.118 C 212.902 285.623,212.441 285.908,212.285 285.751 C 211.821 285.288,211.960 284.728,212.462 285.038 C 212.748 285.215,212.815 285.148,212.638 284.862 C 212.230 284.201,212.160 284.247,211.203 285.796 M208.378 287.826 C 207.949 288.344,207.947 288.520,208.368 288.780 C 208.735 289.007,208.756 289.180,208.440 289.375 C 208.195 289.527,207.889 289.377,207.761 289.043 C 207.405 288.116,206.182 289.437,205.675 291.297 C 205.200 293.038,205.674 293.600,206.556 292.342 C 207.192 291.434,207.048 290.599,206.332 291.042 C 206.081 291.197,206.097 290.965,206.374 290.448 C 206.624 289.982,207.102 289.600,207.438 289.600 C 207.773 289.600,207.934 289.783,207.796 290.007 C 207.658 290.230,207.349 290.292,207.111 290.145 C 206.841 289.978,206.792 290.064,206.982 290.371 C 207.204 290.731,207.630 290.556,208.542 289.733 C 209.232 289.110,209.827 288.600,209.865 288.599 C 209.903 288.599,209.703 288.282,209.420 287.895 C 208.952 287.255,208.857 287.249,208.378 287.826 M195.000 292.405 C 195.000 294.045,195.130 294.089,200.000 294.089 C 204.870 294.089,205.000 294.045,205.000 292.405 C 205.000 291.170,204.646 291.192,203.962 292.471 C 203.684 292.991,203.673 293.202,203.932 293.042 C 204.159 292.902,204.448 292.954,204.574 293.158 C 204.833 293.577,203.775 293.508,203.345 293.078 C 203.192 292.925,201.687 292.800,200.000 292.800 C 198.313 292.800,196.808 292.925,196.655 293.078 C 196.225 293.508,195.167 293.577,195.426 293.158 C 195.552 292.954,195.841 292.902,196.068 293.042 C 196.327 293.202,196.316 292.991,196.038 292.471 C 195.354 291.192,195.000 291.170,195.000 292.405 M201.700 293.493 C 200.765 293.577,199.235 293.577,198.300 293.493 C 197.365 293.409,198.130 293.340,200.000 293.340 C 201.870 293.340,202.635 293.409,201.700 293.493 M91.750 312.100 C 92.013 312.920,91.593 313.008,90.799 312.300 C 90.319 311.872,90.318 311.905,90.791 312.528 C 91.119 312.959,91.654 313.175,92.104 313.057 C 92.642 312.916,92.800 313.024,92.644 313.429 C 92.524 313.743,92.565 314.000,92.736 314.000 C 92.907 314.000,93.396 314.285,93.824 314.633 C 94.313 315.032,94.378 315.198,94.000 315.083 C 93.486 314.926,93.429 315.461,93.600 318.818 C 93.815 323.030,94.066 323.772,94.807 322.387 C 95.442 321.200,95.188 314.729,94.496 314.499 C 94.221 314.407,94.115 314.122,94.262 313.866 C 94.408 313.610,94.380 313.534,94.200 313.698 C 94.019 313.861,93.675 313.612,93.436 313.143 C 93.196 312.673,92.840 312.330,92.645 312.379 C 92.449 312.428,92.117 312.228,91.907 311.934 C 91.621 311.534,91.581 311.576,91.750 312.100 M108.141 312.191 C 108.361 312.764,108.307 312.821,107.880 312.466 C 107.267 311.958,106.400 312.565,106.400 313.504 C 106.400 313.813,106.201 313.924,105.938 313.762 C 105.665 313.593,105.584 313.651,105.741 313.904 C 105.886 314.139,105.779 314.407,105.504 314.499 C 104.812 314.729,104.558 321.200,105.193 322.387 C 105.934 323.772,106.185 323.030,106.400 318.818 C 106.571 315.461,106.514 314.926,106.000 315.083 C 105.622 315.198,105.687 315.032,106.176 314.633 C 106.604 314.285,107.093 314.000,107.264 314.000 C 107.435 314.000,107.486 313.769,107.378 313.486 C 107.068 312.680,106.244 312.697,152.933 312.548 C 177.315 312.471,197.428 312.306,197.628 312.183 C 197.828 312.059,197.876 312.283,197.737 312.679 C 197.529 313.268,197.581 313.309,198.021 312.900 C 198.664 312.303,199.350 312.233,199.000 312.800 C 198.864 313.020,198.927 313.200,199.139 313.200 C 199.351 313.200,199.436 313.540,199.328 313.955 C 199.219 314.370,199.326 314.831,199.565 314.978 C 200.516 315.566,200.093 321.718,199.000 323.200 C 197.838 324.776,197.785 324.968,198.600 324.655 C 198.930 324.529,199.200 324.610,199.200 324.836 C 199.200 325.062,199.396 325.126,199.635 324.978 C 199.874 324.831,199.977 324.356,199.864 323.923 C 199.721 323.377,199.823 323.200,200.196 323.343 C 200.821 323.583,201.351 322.541,200.783 322.189 C 200.572 322.059,200.403 320.298,200.406 318.276 C 200.411 315.541,200.523 314.754,200.844 315.200 C 201.203 315.699,201.235 315.677,201.038 315.067 C 200.907 314.664,200.800 314.265,200.800 314.180 C 200.800 314.095,200.485 314.143,200.100 314.287 C 199.503 314.511,199.476 314.456,199.915 313.916 C 200.679 312.975,198.661 311.448,197.074 311.765 C 195.440 312.092,108.835 312.069,108.305 311.741 C 108.014 311.561,107.958 311.714,108.141 312.191 M94.693 320.500 C 94.609 321.435,94.540 320.670,94.540 318.800 C 94.540 316.930,94.609 316.165,94.693 317.100 C 94.777 318.035,94.777 319.565,94.693 320.500 M105.493 320.500 C 105.409 321.435,105.340 320.670,105.340 318.800 C 105.340 316.930,105.409 316.165,105.493 317.100 C 105.577 318.035,105.577 319.565,105.493 320.500 M92.726 323.561 C 92.363 323.985,92.186 324.466,92.333 324.630 C 92.480 324.794,92.285 324.814,91.900 324.676 C 91.159 324.411,90.879 325.354,91.571 325.782 C 92.222 326.184,93.965 324.277,93.660 323.495 C 93.403 322.833,93.346 322.837,92.726 323.561 M106.288 323.584 C 106.066 324.434,107.766 326.192,108.420 325.788 C 108.599 325.677,128.776 325.591,153.256 325.597 C 182.929 325.603,197.633 325.473,197.367 325.207 C 196.955 324.795,108.484 324.583,108.074 324.993 C 107.623 325.444,107.115 325.184,107.501 324.700 C 107.778 324.352,107.687 323.982,107.200 323.484 C 106.530 322.796,106.493 322.800,106.288 323.584 M131.100 326.300 C 143.255 326.359,163.145 326.359,175.300 326.300 C 187.455 326.241,177.510 326.193,153.200 326.193 C 128.890 326.193,118.945 326.241,131.100 326.300 M90.400 337.200 C 90.400 337.466,127.200 337.600,200.000 337.600 C 272.800 337.600,309.600 337.466,309.600 337.200 C 309.600 336.934,272.800 336.800,200.000 336.800 C 127.200 336.800,90.400 336.934,90.400 337.200 M77.933 350.289 L 71.266 350.419 70.033 351.823 C 68.644 353.405,68.587 353.997,69.066 361.820 L 69.332 366.164 72.366 369.292 C 74.035 371.012,75.850 372.867,76.400 373.415 C 76.950 373.962,78.436 375.443,79.702 376.705 C 82.465 379.459,82.763 379.754,86.757 383.667 C 89.502 386.356,90.128 386.775,91.844 387.067 C 94.370 387.497,307.423 387.505,308.969 387.075 C 310.125 386.754,312.066 384.977,320.511 376.511 C 321.610 375.410,322.979 374.038,323.554 373.464 C 324.129 372.889,325.965 371.012,327.634 369.292 L 330.668 366.164 330.934 361.820 C 331.424 353.816,331.377 353.381,329.831 351.694 L 328.462 350.200 206.531 350.180 C 139.469 350.169,81.600 350.218,77.933 350.289 M320.900 353.010 L 328.000 353.236 328.000 356.368 L 328.000 359.501 325.780 359.685 C 322.992 359.916,322.464 360.451,322.096 363.418 L 321.800 365.800 319.605 365.924 C 316.702 366.088,316.068 366.711,315.919 369.545 L 315.800 371.800 313.418 372.096 C 310.404 372.470,309.895 372.996,309.681 375.956 C 309.534 377.977,309.379 378.369,308.654 378.555 C 307.308 378.899,304.850 381.134,304.012 382.777 L 303.247 384.277 299.562 384.538 C 294.743 384.880,105.247 384.880,100.428 384.538 C 96.926 384.289,96.712 384.221,96.339 383.239 C 95.619 381.345,94.049 379.700,92.255 378.958 L 90.482 378.224 90.322 375.713 C 90.125 372.617,89.945 372.434,86.763 372.083 L 84.200 371.800 84.076 369.605 C 83.912 366.702,83.289 366.068,80.455 365.919 L 78.200 365.800 77.904 363.418 C 77.536 360.451,77.008 359.916,74.220 359.685 L 72.000 359.501 72.000 356.350 L 72.000 353.200 78.300 353.155 C 81.765 353.131,86.310 352.977,88.400 352.814 C 92.707 352.479,309.964 352.661,320.900 353.010 M169.285 360.451 C 166.938 361.128,166.403 362.623,166.401 368.513 C 166.399 378.255,163.165 377.400,200.000 377.400 C 236.835 377.400,233.601 378.255,233.599 368.513 C 233.597 362.471,233.090 361.140,230.521 360.427 C 228.563 359.883,171.176 359.906,169.285 360.451 M229.881 364.078 C 231.842 365.979,231.885 371.192,229.959 373.386 L 228.717 374.800 200.000 374.800 L 171.283 374.800 170.041 373.386 C 168.143 371.224,168.163 366.095,170.078 364.119 L 171.357 362.800 199.959 362.800 L 228.562 362.800 229.881 364.078 " stroke="none" fill="#c4c4c4" fill-rule="evenodd"></path><path id="path6" d="M72.000 1.548 L 72.000 3.097 69.610 3.367 C 66.647 3.702,66.002 4.302,65.994 6.729 C 65.986 9.244,65.770 9.463,63.086 9.681 C 60.210 9.914,59.914 10.210,59.681 13.086 C 59.464 15.756,59.239 15.983,56.800 16.000 C 54.488 16.016,54.022 16.341,53.581 18.241 C 53.098 20.321,53.098 379.679,53.581 381.759 C 54.022 383.659,54.488 383.984,56.800 384.000 C 59.239 384.017,59.464 384.244,59.681 386.914 C 59.914 389.790,60.210 390.086,63.086 390.319 C 65.770 390.537,65.986 390.756,65.994 393.271 C 66.002 395.698,66.647 396.298,69.610 396.633 L 72.000 396.903 72.000 398.452 L 72.000 400.000 200.000 400.000 L 328.000 400.000 328.000 398.457 L 328.000 396.914 330.459 396.657 C 333.390 396.351,334.000 395.927,334.000 394.201 C 334.000 390.817,334.290 390.400,336.650 390.400 C 339.570 390.400,340.400 389.570,340.400 386.650 C 340.400 384.290,340.817 384.000,344.201 384.000 C 344.923 384.000,345.746 383.706,346.051 383.339 C 346.874 382.347,346.874 17.653,346.051 16.661 C 345.746 16.294,344.923 16.000,344.201 16.000 C 340.817 16.000,340.400 15.710,340.400 13.350 C 340.400 10.430,339.570 9.600,336.650 9.600 C 334.290 9.600,334.000 9.183,334.000 5.799 C 334.000 4.073,333.390 3.649,330.459 3.343 L 328.000 3.086 328.000 1.543 L 328.000 0.000 200.000 0.000 L 72.000 0.000 72.000 1.548 M310.400 12.759 C 310.950 13.066,312.610 14.506,314.089 15.959 C 315.568 17.411,317.240 19.050,317.806 19.600 C 318.372 20.150,319.720 21.500,320.802 22.600 C 321.885 23.700,323.362 25.197,324.085 25.927 C 332.142 34.058,331.600 32.959,331.600 41.167 L 331.600 47.573 330.252 48.921 L 328.905 50.268 314.987 50.534 C 296.872 50.880,103.128 50.880,85.013 50.534 L 71.095 50.268 69.748 48.921 L 68.400 47.573 68.400 41.171 C 68.400 33.759,68.688 32.830,71.782 30.266 C 72.800 29.422,74.107 28.017,74.685 27.143 C 75.264 26.269,76.527 25.090,77.493 24.524 C 78.480 23.946,79.836 22.625,80.587 21.509 C 81.322 20.417,82.821 18.920,83.917 18.181 C 85.014 17.443,86.294 16.219,86.762 15.461 C 87.917 13.593,89.414 12.673,91.800 12.365 C 96.307 11.783,309.342 12.167,310.400 12.759 M170.675 26.722 C 169.063 28.405,169.050 34.141,170.655 35.745 L 171.709 36.800 200.000 36.800 L 228.291 36.800 229.345 35.745 C 230.984 34.107,230.941 28.268,229.278 26.675 L 228.156 25.600 199.953 25.600 L 171.750 25.600 170.675 26.722 M329.772 63.747 L 331.200 65.094 331.200 200.000 L 331.200 334.906 329.772 336.253 L 328.343 337.600 200.000 337.600 L 71.657 337.600 70.228 336.253 L 68.800 334.906 68.800 200.000 L 68.800 65.094 70.228 63.747 L 71.657 62.400 200.000 62.400 L 328.343 62.400 329.772 63.747 M263.969 76.369 C 262.209 78.130,262.178 84.454,263.922 86.125 C 265.689 87.818,271.904 87.757,273.631 86.031 C 275.452 84.210,275.414 78.275,273.569 76.431 C 271.725 74.586,265.790 74.548,263.969 76.369 M288.878 76.519 C 287.001 78.456,286.932 84.000,288.760 85.958 L 289.921 87.200 296.608 87.200 L 303.294 87.200 304.847 88.753 L 306.400 90.306 306.400 96.922 L 306.400 103.538 307.596 104.735 C 309.977 107.116,316.215 106.906,318.010 104.385 C 318.998 102.998,319.173 85.478,318.246 80.691 C 317.250 75.543,316.145 75.200,300.546 75.200 L 290.157 75.200 288.878 76.519 M111.600 106.857 C 108.280 107.405,107.328 108.558,106.735 112.748 C 106.329 115.620,106.084 116.279,104.984 117.444 L 103.706 118.800 96.953 118.812 C 83.729 118.837,82.392 119.371,81.618 124.941 C 80.944 129.795,81.219 275.238,81.906 277.230 C 83.322 281.336,81.441 281.200,137.003 281.200 C 168.875 281.200,183.903 281.334,184.674 281.625 C 185.732 282.024,187.425 283.578,193.913 290.103 L 196.600 292.807 200.000 292.809 L 203.400 292.810 206.000 290.198 C 213.220 282.942,214.641 281.731,216.237 281.467 C 217.097 281.325,238.442 281.207,263.671 281.204 C 321.360 281.199,317.408 281.665,318.369 274.747 C 319.055 269.814,318.793 124.794,318.094 122.770 C 316.959 119.480,314.362 118.800,302.918 118.800 L 296.294 118.800 295.019 117.447 C 293.926 116.288,293.670 115.607,293.236 112.688 C 292.248 106.044,294.684 106.398,249.967 106.408 C 207.424 106.417,210.017 106.192,206.178 110.210 L 203.321 113.200 200.000 113.200 L 196.679 113.200 193.822 110.210 C 190.972 107.228,190.958 107.219,188.183 106.818 C 184.674 106.311,114.692 106.346,111.600 106.857 M185.908 118.914 C 186.627 119.307,187.761 120.387,188.427 121.314 C 189.093 122.241,190.303 123.458,191.116 124.017 C 191.929 124.577,192.997 125.747,193.490 126.617 L 194.387 128.200 194.393 184.474 C 194.400 244.753,194.498 242.058,192.228 244.200 L 190.887 245.464 187.943 244.948 C 185.710 244.556,177.320 244.428,153.154 244.416 C 121.477 244.400,121.302 244.396,120.246 243.565 C 117.850 241.680,118.000 245.838,118.000 181.200 C 118.000 115.772,117.811 120.448,120.519 118.772 C 122.407 117.604,183.753 117.737,185.908 118.914 M280.293 119.707 L 281.800 121.213 281.918 180.707 C 282.050 246.927,282.255 241.835,279.385 243.609 C 278.139 244.380,277.280 244.400,246.186 244.400 C 224.476 244.400,213.445 244.543,211.700 244.847 L 209.135 245.294 207.794 243.994 C 207.057 243.280,206.256 242.218,206.015 241.636 C 205.287 239.879,205.626 128.508,206.363 127.200 C 207.271 125.589,214.275 118.845,215.280 118.614 C 217.011 118.216,222.227 118.151,250.493 118.176 L 278.787 118.200 280.293 119.707 M104.847 132.753 L 106.400 134.306 106.414 190.653 C 106.426 237.349,106.525 247.542,106.992 250.167 C 108.140 256.606,106.564 256.378,150.000 256.392 C 188.352 256.404,185.366 256.173,187.768 259.322 C 188.351 260.087,189.573 261.205,190.484 261.808 C 192.413 263.085,194.400 265.155,194.400 265.889 C 194.400 267.436,195.896 268.000,200.000 268.000 C 204.133 268.000,205.600 267.437,205.600 265.852 C 205.600 265.551,206.425 264.606,207.433 263.752 C 208.441 262.898,210.408 261.076,211.803 259.701 C 215.408 256.152,212.508 256.401,250.326 256.390 C 293.388 256.378,291.861 256.601,293.008 250.167 C 293.475 247.542,293.574 237.349,293.586 190.653 L 293.600 134.306 295.153 132.753 C 297.530 130.376,302.470 130.376,304.847 132.753 L 306.400 134.306 306.400 200.139 L 306.400 265.972 305.177 267.365 L 303.954 268.758 257.077 268.890 C 205.236 269.036,208.231 268.871,206.975 271.655 C 204.441 277.274,195.553 277.262,193.016 271.636 C 191.788 268.913,194.399 269.055,142.724 268.900 L 96.048 268.760 94.824 267.366 L 93.600 265.972 93.600 200.139 L 93.600 134.306 95.153 132.753 C 96.705 131.200,96.707 131.200,100.000 131.200 C 103.293 131.200,103.295 131.200,104.847 132.753 M133.169 139.169 C 131.464 140.874,131.393 146.483,133.055 148.145 C 134.767 149.858,140.671 149.744,142.164 147.969 C 143.869 145.943,143.709 141.051,141.881 139.278 C 139.949 137.406,134.995 137.344,133.169 139.169 M158.078 139.319 C 156.294 141.160,156.159 145.977,157.836 147.969 L 158.871 149.200 168.654 149.200 L 178.436 149.200 179.418 148.218 C 181.062 146.574,180.897 140.490,179.169 139.036 L 177.939 138.000 168.648 138.000 L 159.357 138.000 158.078 139.319 M220.478 139.319 C 219.254 140.582,219.200 140.776,219.200 143.878 C 219.200 148.374,220.443 149.600,225.000 149.600 C 229.570 149.600,230.800 148.378,230.800 143.837 C 230.800 139.135,229.664 138.000,224.959 138.000 C 221.862 138.000,221.715 138.043,220.478 139.319 M245.631 139.036 C 243.731 140.634,243.739 146.661,245.642 148.440 L 246.885 149.600 256.212 149.600 L 265.539 149.600 266.769 148.564 C 268.559 147.058,268.660 140.933,266.925 139.122 L 265.850 138.000 256.356 138.000 L 246.861 138.000 245.631 139.036 M133.075 164.322 C 131.420 166.049,131.450 171.723,133.122 173.325 L 134.244 174.400 156.247 174.400 L 178.250 174.400 179.325 173.278 C 180.937 171.595,180.950 165.859,179.345 164.255 L 178.291 163.200 156.220 163.200 L 134.150 163.200 133.075 164.322 M220.236 164.431 C 218.621 166.349,218.693 171.373,220.360 173.158 L 221.521 174.400 243.706 174.400 L 265.891 174.400 266.945 173.345 C 268.497 171.794,268.545 165.709,267.018 164.182 L 266.036 163.200 243.654 163.200 L 221.271 163.200 220.236 164.431 M133.169 189.169 C 131.464 190.874,131.393 196.483,133.055 198.145 L 134.109 199.200 156.273 199.200 L 178.436 199.200 179.418 198.218 C 181.062 196.574,180.897 190.490,179.169 189.036 L 177.939 188.000 156.139 188.000 L 134.338 188.000 133.169 189.169 M220.478 189.319 C 218.453 191.408,218.530 196.529,220.614 198.359 L 222.028 199.600 243.783 199.600 L 265.539 199.600 266.769 198.564 C 268.559 197.058,268.660 190.933,266.925 189.122 L 265.850 188.000 243.804 188.000 L 221.757 188.000 220.478 189.319 M133.075 214.322 C 131.420 216.049,131.450 221.723,133.122 223.325 L 134.244 224.400 156.247 224.400 L 178.250 224.400 179.325 223.278 C 180.937 221.595,180.950 215.859,179.345 214.255 L 178.291 213.200 156.220 213.200 L 134.150 213.200 133.075 214.322 M220.236 214.431 C 218.621 216.349,218.693 221.373,220.360 223.158 L 221.521 224.400 243.706 224.400 L 265.891 224.400 266.945 223.345 C 268.497 221.794,268.545 215.709,267.018 214.182 L 266.036 213.200 243.654 213.200 L 221.271 213.200 220.236 214.431 M82.613 313.813 C 80.017 316.410,80.591 322.647,83.600 324.524 C 85.385 325.637,90.845 324.999,92.381 323.497 C 93.841 322.070,94.223 316.268,92.976 314.487 C 91.137 311.861,84.966 311.460,82.613 313.813 M107.569 313.969 C 105.721 315.818,105.786 321.705,107.676 323.553 L 108.952 324.800 153.116 324.800 L 197.280 324.800 198.640 323.440 C 200.637 321.443,200.702 316.427,198.759 314.214 L 197.517 312.800 153.128 312.800 L 108.738 312.800 107.569 313.969 M314.987 349.466 L 328.905 349.732 330.252 351.079 L 331.600 352.427 331.600 358.833 C 331.600 366.313,331.523 366.546,327.843 370.273 C 326.499 371.633,324.808 373.343,324.085 374.073 C 323.362 374.803,321.885 376.300,320.802 377.400 C 319.720 378.500,318.376 379.850,317.815 380.400 C 312.073 386.032,310.736 387.205,309.746 387.481 C 309.116 387.656,259.550 387.800,199.600 387.800 L 90.600 387.800 89.120 386.880 C 88.306 386.374,87.264 385.350,86.803 384.605 C 86.343 383.860,85.074 382.609,83.983 381.826 C 82.892 381.042,81.361 379.513,80.582 378.428 C 79.802 377.343,78.394 376.003,77.451 375.451 C 76.508 374.899,75.264 373.731,74.685 372.857 C 74.107 371.983,72.800 370.578,71.782 369.734 C 68.688 367.170,68.400 366.241,68.400 358.829 L 68.400 352.427 69.806 351.021 L 71.212 349.615 80.506 349.500 C 100.944 349.247,301.986 349.218,314.987 349.466 M170.655 364.255 C 169.016 365.893,169.059 371.732,170.722 373.325 L 171.844 374.400 200.000 374.400 L 228.156 374.400 229.278 373.325 C 230.941 371.732,230.984 365.893,229.345 364.255 L 228.291 363.200 200.000 363.200 L 171.709 363.200 170.655 364.255 " stroke="none" fill="#040404" fill-rule="evenodd"></path></g></svg>